<?xml version="1.0" encoding="UTF-8" standalone="no"?>
<!-- Created with Inkscape (http://www.inkscape.org/) -->

<svg
   xmlns:dc="http://purl.org/dc/elements/1.1/"
   xmlns:cc="http://creativecommons.org/ns#"
   xmlns:rdf="http://www.w3.org/1999/02/22-rdf-syntax-ns#"
   xmlns:svg="http://www.w3.org/2000/svg"
   xmlns="http://www.w3.org/2000/svg"
   xmlns:sodipodi="http://sodipodi.sourceforge.net/DTD/sodipodi-0.dtd"
   xmlns:inkscape="http://www.inkscape.org/namespaces/inkscape"
   width="210mm"
   height="297mm"
   viewBox="0 0 744.09448819 1052.3622047"
   id="svg2"
   version="1.1"
   inkscape:version="0.91 r13725"
   sodipodi:docname="inkscape.svg">
  <defs
     id="defs4" />
  <sodipodi:namedview
     id="base"
     pagecolor="#ffffff"
     bordercolor="#666666"
     borderopacity="1.0"
     inkscape:pageopacity="0.0"
     inkscape:pageshadow="2"
     inkscape:zoom="0.50000003"
     inkscape:cx="874.28789"
     inkscape:cy="497.71111"
     inkscape:document-units="px"
     inkscape:current-layer="layer1"
     showgrid="false"
     inkscape:snap-global="true"
     inkscape:window-width="1440"
     inkscape:window-height="812"
     inkscape:window-x="0"
     inkscape:window-y="1"
     inkscape:window-maximized="1" />
  <metadata
     id="metadata7">
    <rdf:RDF>
      <cc:Work
         rdf:about="">
        <dc:format>image/svg+xml</dc:format>
        <dc:type
           rdf:resource="http://purl.org/dc/dcmitype/StillImage" />
        <dc:title />
      </cc:Work>
    </rdf:RDF>
  </metadata>
  <g
     inkscape:label="Layer 1"
     inkscape:groupmode="layer"
     id="layer1">
    <path
       style="fill:none;fill-opacity:0.7132867;stroke:#000000;stroke-width:0.35433072;stroke-miterlimit:4;stroke-dasharray:none;stroke-opacity:1"
       d="m 2.8835507e-6,527.95276 744.0944871164492,0 0,524.40944 -744.0944871164492,0 z"
       id="rect5720" />
    <path
       id="path6209"
       style="fill:none;stroke:#000000;stroke-width:0.03543307;stroke-miterlimit:4;stroke-dasharray:none;stroke-opacity:1;fill-opacity:1"
       d="m 668.05218,251.65765 c -6.2337,-2.82164 -29.2338,-7.89039 -42.13823,-9.28641 -6.67602,-0.72223 -20.0354,-1.31314 -29.6875,-1.31314 -10.74543,0 -17.54926,-0.47967 -17.54926,-1.23723 0,-1.93255 12.28532,-9.60113 21.13536,-13.19283 15.08964,-6.12397 40.67823,-6.92273 53.29463,-1.66362 3.4534,1.43953 2.9038,1.62781 -8.4061,2.87946 -6.65568,0.73657 -12.47808,1.72412 -12.93871,2.19456 -0.46064,0.47044 1.60987,1.47369 4.60114,2.22944 15.07717,3.80927 27.33187,9.58816 34.50577,16.27162 2.7535,2.56525 3.7245,5.11785 1.8704,4.91708 -0.5156,-0.0558 -2.625,-0.86536 -4.6875,-1.79893 z m -58.74999,61.98979 c -11.98875,-9.99579 -31.41331,-17.58259 -52.82808,-20.63348 -7.05545,-1.00516 -13.39616,-2.17866 -14.09047,-2.60778 -2.33568,-1.44352 -8.83062,-15.73767 -8.13981,-17.91419 0.73766,-2.32417 9.46712,-10.03988 14.23815,-12.58469 7.54456,-4.02416 33.70766,3.53664 50.60908,14.62537 12.90064,8.46388 35.37498,32.40325 32.81942,34.95881 -0.41673,0.41673 -4.83033,-1.03044 -9.80799,-3.21593 -4.97766,-2.1855 -9.66741,-3.97224 -10.42166,-3.97054 -0.76928,0.002 -0.0348,2.70398 1.67308,6.1548 1.67444,3.38344 2.85405,7.10727 2.62137,8.27518 -0.34177,1.71528 -1.62454,1.12175 -6.67309,-3.08755 z m 76.87499,10.30047 c -8.8159,-1.46621 -29.2017,-7.28382 -37.2471,-10.62941 -7.9617,-3.3108 -9.96897,-4.84869 -15.77885,-12.08938 -21.04772,-26.2311 -42.03202,-39.48776 -71.10057,-44.91718 -6.03594,-1.1274 -6.29731,-2.57245 -1.09889,-6.07566 15.97508,-10.7656 59.29667,-7.90526 108.03471,7.13309 12.8255,3.95736 20.9407,9.31237 20.9407,13.81822 0,3.06784 -0.1151,3.04573 -7.3643,-1.41479 -6.5473,-4.0286 -23.7302,-10.53686 -24.8534,-9.4136 -0.3692,0.36912 2.1248,3.63051 5.542,7.24752 7.2922,7.71838 12.0092,15.39607 15.2547,24.82936 3.1603,9.18556 8.3252,19.2569 13.5565,26.43452 l 4.3274,5.9375 -3.5439,-0.17023 c -1.9492,-0.0936 -4.9502,-0.4041 -6.669,-0.68996 z m -220.62499,85.41913 c -12.33789,-5.75763 -19.67816,-18.25651 -13.125,-22.34903 1.375,-0.8587 2.5,-1.93217 2.5,-2.38548 0,-0.45332 -4.39662,-3.61555 -9.77026,-7.02719 -10.92071,-6.93338 -25.69955,-20.16267 -28.43612,-25.45462 -6.09089,-11.77847 2.65368,-15.53481 18.87552,-8.1082 3.75697,1.72 6.83086,2.79432 6.83086,2.38738 0,-0.40693 -4.1365,-5.57894 -9.19221,-11.49334 -11.85067,-13.86344 -21.41499,-28.09861 -23.38984,-34.81254 -1.38676,-4.7146 -1.30794,-5.58939 0.70395,-7.8125 5.23829,-5.78824 14.71245,-0.94639 31.78998,16.24658 7.17028,7.21875 12.72032,12.28125 12.33342,11.25 -0.38691,-1.03125 -2.75189,-7.10189 -5.25553,-13.49031 -7.55053,-19.26632 -7.37028,-26.50969 0.65968,-26.50969 5.33717,0 12.55624,7.26831 18.34936,18.4745 5.21998,10.09753 13.26378,33.43484 12.14699,35.24184 -0.35654,0.5769 -2.61052,0.44667 -5.00883,-0.28939 -3.7177,-1.141 -4.75195,-0.98548 -7.01521,1.05487 -2.63596,2.37635 -2.79879,6.17949 -0.85171,19.89318 0.313,2.20454 -0.25172,2.45244 -4.77831,2.09755 -6.13336,-0.48086 -9.24174,1.99019 -9.24174,7.34682 0,5.76792 7.00941,18.72342 13.9154,25.71983 5.72369,5.79865 6.1879,6.68214 4.83714,9.20605 -1.47403,2.75425 -1.24643,7.29795 0.57941,11.56725 1.22655,2.86801 0.0485,2.74896 -7.45695,-0.75356 z m 121.07525,3.59565 c -11.56873,-2.09965 -16.68346,-3.804 -27.20834,-9.06645 -18.43321,-9.21664 -33.24184,-27.98484 -38.91591,-49.32138 -0.85685,-3.22204 -4.06977,-9.12828 -7.13982,-13.125 -11.80005,-15.36177 -16.63786,-30.60855 -15.59272,-49.14176 0.7124,-12.63271 4.28047,-24.87147 8.55503,-29.34449 2.3387,-2.44727 2.40034,-2.44773 6.85213,-0.0503 5.42678,2.92251 20.63014,18.93797 24.47965,25.78724 1.52598,2.71512 3.92657,5.15029 5.33463,5.41148 1.40805,0.26119 6.41528,1.11186 11.12714,1.89036 22.9891,3.79832 46.9728,15.36708 60.80796,29.33129 10.68484,10.78451 12.14116,9.41859 6.82925,-6.4053 -1.7439,-5.19502 -2.87521,-9.74101 -2.51403,-10.1022 0.3612,-0.3612 6.70992,1.89512 14.10825,5.01404 7.39832,3.11891 14.71772,6.05695 16.26532,6.52896 1.5477,0.47201 3.3882,1.93128 4.0901,3.24281 1.4656,2.7386 4.1332,34.51813 3.0451,36.27857 -0.3968,0.64213 -2.1415,1.16751 -3.8769,1.16751 -5.885,0 -2.3532,3.11048 3.9939,3.51745 9.3887,0.60202 11.077,3.02687 7.4283,10.66864 -2.6402,5.52969 -9.0478,9.56391 -15.1904,9.56391 -5.704,0 -8.0243,-1.9315 -11.06615,-9.21156 -2.5069,-5.99985 -4.42073,-4.74014 -7.45515,4.90708 -2.14517,6.82006 -2.13985,18.48297 0.0131,28.80637 0.79826,3.82761 0.73339,3.88718 -5.10556,4.6875 -9.27157,1.27081 -29.06516,0.7438 -38.86491,-1.0348 z m -105.16891,-0.65984 c -2.25151,-1.37274 -4.68111,-4.04103 -5.39911,-5.92951 -1.23012,-3.23545 -1.12927,-4.91456 0.65707,-10.94024 0.56871,-1.91836 -0.46594,-3.37245 -4.44717,-6.25 -2.85356,-2.0625 -7.38776,-6.50698 -10.07598,-9.87663 -4.29111,-5.37882 -4.84212,-6.81261 -4.51442,-11.74695 0.60783,-9.15216 4.64018,-9.89497 13.79031,-2.54036 1.87938,1.51059 3.69415,2.46941 4.03284,2.13073 0.33869,-0.33869 -0.49334,-3.53483 -1.84896,-7.10252 -4.4224,-11.6388 -5.31422,-17.66178 -3.11269,-21.02174 2.54233,-3.88009 6.07842,-3.76451 9.27813,0.30326 2.67122,3.39591 4.30374,8.48896 8.69303,27.11997 1.42737,6.05868 4.86105,16.31911 7.63041,22.80099 5.58553,13.07329 6.41625,20.17095 2.74927,23.48951 -3.20714,2.90244 -12.33107,2.67398 -17.43273,-0.43651 z m 58.77196,20.31775 c -15.85666,-18.39981 -27.8033,-50.86451 -27.8033,-75.55475 0,-11.10577 2.21696,-10.90275 4.98627,0.45663 3.73145,15.30595 9.13837,24.15517 23.33593,38.19266 7.11029,7.03012 12.9278,13.077 12.9278,13.4375 0,0.3605 -3.9375,0.65546 -8.75,0.65546 -4.8125,0 -8.75,0.53775 -8.75,1.19499 0,0.65725 1.57283,3.89162 3.49517,7.1875 3.86013,6.61824 9.00483,18.20859 9.00483,20.28674 0,2.79298 -2.46614,1.08302 -8.4467,-5.85673 z m 12.36901,53.85699 c -1.95386,-8.40403 -10.10406,-25.41949 -12.17562,-25.41949 -1.5839,0 -2.9526,3.92363 -2.97963,8.54166 -0.0343,5.84488 -2.97357,1.75024 -5.03208,-7.00982 -2.38658,-10.15619 -8.16466,-22.6475 -13.69507,-29.60662 -5.25128,-6.60788 -9.69132,-16.49936 -12.79968,-28.51502 -3.23686,-12.51239 -3.77039,-37.34163 -1.14205,-53.1483 2.55194,-15.34715 4.4049,-12.6347 4.57816,6.70169 0.17963,20.04841 3.62687,34.30902 12.60035,52.12541 3.56984,7.08774 22.11125,32.48019 26.67836,36.536 1.54834,1.375 4.2747,5.3125 6.05859,8.75 2.85505,5.50161 3.24476,7.74676 3.25461,18.75 0.0175,19.54321 -2.37921,25.05513 -5.34594,12.29449 z m -38.06689,1.34854 c -0.89572,-19.42183 -2.04971,-27.23678 -6.44448,-43.64303 -3.55357,-13.26594 -5.26278,-26.875 -3.37531,-26.875 0.70461,0 2.67645,3.04784 4.38187,6.77296 1.70542,3.72513 5.32373,10.05325 8.04069,14.0625 10.24738,15.12141 10.91681,17.10145 10.91681,32.28954 0,12.45949 -0.32003,14.39525 -3.40987,20.625 -1.87544,3.78125 -4.73686,8.51436 -6.35871,10.51803 l -2.94884,3.64302 -0.80216,-17.39302 z" />
    <path
       style="fill:#101010;stroke-width:1.77165354;stroke-miterlimit:4;stroke-dasharray:none"
       d="m 560.38377,1039.2663 c -1.3669,-0.7952 -2.48531,-2.6105 -2.48531,-4.0341 0,-1.8189 -0.97467,-2.5883 -3.27903,-2.5883 -1.80334,0 -4.51928,-0.8475 -6.03532,-1.8832 -2.51826,-1.7209 -2.58656,-2.2655 -0.79075,-6.3039 1.08118,-2.4312 3.4611,-8.3022 5.28872,-13.0464 6.46209,-16.77524 3.57018,-37.79557 -7.25737,-52.75219 l -5.04375,-6.96726 -9.90359,0 c -11.34265,0 -11.05464,-0.47532 -8.44493,13.93452 2.67321,14.75967 1.95134,41.19863 -1.49957,54.93483 -4.31917,17.1912 -4.61243,17.3937 -25.16704,17.3847 -23.95167,-0.014 -32.01795,-2.7734 -27.56246,-9.4401 2.44099,-3.6526 1.99519,-6.4778 -1.02212,-6.4778 -5.55145,0 -5.99005,-3.091 -1.51829,-10.6993 11.09468,-18.87677 17.22317,-35.9097 20.0442,-55.70973 l 1.67523,-11.75709 -5.99597,-6.07845 c -12.68897,-12.86378 -16.70096,-32.68219 -10.89246,-53.80686 l 0.92141,-3.35103 -18.89106,0.0334 c -21.58963,0.0381 -28.94738,-1.778 -36.22506,-8.94105 -6.6459,-6.5412 -7.14457,-9.69516 -1.93123,-12.21438 5.6065,-2.70924 6.59531,-6.85749 4.32025,-18.12461 -1.01503,-5.02685 -1.58257,-9.34775 -1.26124,-9.60198 13.03958,-10.31654 19.8248,-15.44895 20.42393,-15.44895 0.41408,0 0.75285,1.493 0.75285,3.31774 0,5.02255 1.92433,4.04101 7.52158,-3.83657 5.94207,-8.36286 15.89395,-16.71877 28.22748,-23.7007 10.78437,-6.10488 9.60932,-6.50348 -2.05131,-0.69581 -4.72719,2.35443 -12.66429,8.02778 -17.63804,12.60743 -4.97374,4.57964 -9.41367,8.32663 -9.86645,8.32663 -0.45282,0 -0.56218,-2.0902 -0.24302,-4.64485 0.31917,-2.55466 0.30439,-4.64486 -0.0329,-4.64486 -0.33719,0 -4.44098,3.90367 -9.11949,8.67481 -9.57324,9.76281 -21.62782,18.20219 -34.83365,24.387 l -8.92216,4.17861 3.47476,-6.40765 c 4.79422,-8.84091 13.89033,-34.64703 13.37341,-37.9411 -0.39116,-2.4927 -0.8367,-2.36274 -5.74967,1.67706 -3.96989,3.26433 -5.32566,3.82613 -5.32566,2.20689 0,-3.91336 6.71954,-14.67158 13.6867,-21.91286 7.56314,-7.86072 7.8571,-7.6301 -5.87574,-4.60982 l -4.26052,0.93704 2.84035,-2.98849 c 3.62,-3.80876 12.22575,-7.92598 21.30262,-10.19171 14.91584,-3.72323 38.53486,-1.07812 55.83812,6.2534 9.44488,4.00178 11.62016,4.01622 11.62016,0.0771 0,-3.52167 5.27069,-8.18479 8.17622,-7.2337 4.91537,1.60903 11.53992,8.85031 15.34514,16.77378 5.00895,10.42986 6.17406,23.36264 2.93777,32.60859 -1.27389,3.63947 -2.24956,8.89377 -2.16832,11.67624 l 0.14783,5.05903 2.06508,-6.30372 c 1.13572,-3.46705 2.60902,-6.30371 3.27422,-6.30371 2.37183,0 5.0003,19.51483 4.82632,35.83163 -0.19555,18.33036 -3.18289,30.45831 -11.93131,48.43908 -5.47691,11.25666 -11.31156,26.77871 -11.31156,30.09215 0,4.3953 -3.77992,2.51859 -5.45589,-2.70884 -2.53726,-7.91364 -1.9922,-19.11727 1.33412,-27.42509 1.63845,-4.09221 2.54595,-7.84507 2.01665,-8.33964 -0.95649,-0.89389 -7.12501,4.9704 -13.08279,12.43787 l -3.11657,3.90614 -0.0624,-5.30839 c -0.0952,-8.12768 4.41119,-21.64111 10.89628,-32.67671 0.26699,-0.4545 -0.94228,-1.17526 -2.6874,-1.60171 -2.9639,-0.72426 -2.65104,-1.28668 4.7475,-8.53492 6.68947,-6.55358 15.35138,-19.17912 15.35138,-22.37609 0,-0.50237 -2.45178,2.61304 -5.4485,6.92314 -6.37033,9.16272 -15.99968,17.7783 -24.28413,21.7277 -7.07104,3.37098 -6.28711,5.94386 1.51334,4.96619 6.44461,-0.80776 7.09463,0.94531 2.79164,7.52801 -5.97851,9.14566 -9.27247,30.08032 -6.34122,40.30135 0.84103,2.93265 3.36538,4.21432 3.36538,1.70864 0,-2.8585 5.98462,-15.97495 7.28891,-15.97495 0.88463,0 1.04268,3.42748 0.42733,9.26291 -0.87966,8.34252 -0.60656,9.96987 2.74861,16.37811 4.50791,8.60997 9.01995,12.9391 10.7537,10.31771 0.6395,-0.96691 1.56474,-4.52633 2.05599,-7.90984 1.6474,-11.34677 6.54458,-22.31847 14.33694,-32.12075 5.72358,-7.19995 8.21132,-11.79968 9.93015,-18.36076 1.26139,-4.8148 3.5892,-12.93454 5.1727,-18.04387 1.58364,-5.10933 3.06134,-11.97705 3.28401,-15.26162 0.48868,-7.21348 4.96422,-18.46671 10.7138,-26.93854 6.26154,-9.22631 11.12863,-8.31332 8.73564,1.63867 -0.71322,2.96638 -0.80325,5.3934 -0.20025,5.3934 0.60315,0 3.7822,-3.25302 7.06466,-7.22891 12.47239,-15.10689 24.24721,-22.41448 24.1698,-14.99998 -0.0497,4.77878 -4.66186,13.03176 -16.18814,28.96831 -9.61756,13.29745 -11.91981,17.14834 -10.25208,17.14834 0.2816,0 5.23447,-3.60101 11.00634,-8.00222 10.78395,-8.22295 22.57949,-14.55844 27.10531,-14.55844 4.13895,0 3.09597,5.59963 -2.26504,12.16066 -2.65459,3.24876 -11.30346,11.17786 -19.21965,17.62019 -7.91605,6.44235 -14.08487,12.00131 -13.70823,12.35326 0.37662,0.35195 2.72999,-0.0264 5.22978,-0.84064 2.49965,-0.8143 7.64496,-1.48053 11.43383,-1.48053 5.93506,0 6.889,0.3664 6.889,2.64587 0,2.37167 -8.53044,9.47322 -13.22864,11.01286 -1.12919,0.37001 -0.75355,1.52945 1.14124,3.52257 5.8997,6.20577 6.65962,5.98458 19.34661,-5.63115 18.45715,-16.8986 37.05719,-24.82113 58.27332,-24.82113 15.52947,0 25.15428,3.57799 35.41347,13.16481 5.49125,5.13139 8.83263,9.67629 10.81733,14.71402 6.18898,15.70895 5.54805,17.77799 -3.02526,9.76652 -2.83806,-2.652 -5.436,-4.56393 -5.77329,-4.24874 -0.33729,0.3152 0.94385,4.17547 2.84702,8.57842 4.71427,10.90644 5.52078,19.44025 3.7034,39.18534 -1.4537,15.79379 -0.87242,27.09694 2.08808,40.60085 1.43125,6.52867 -2.59168,5.5923 -8.09671,-1.88452 -4.40651,-5.98492 -4.60548,-6.09059 -5.79757,-3.07907 -0.67899,1.71519 -0.84202,5.84779 -0.36229,9.18355 2.3325,16.21772 8.8207,25.65073 23.44481,34.08573 4.6444,2.6788 8.44436,5.3829 8.44436,6.0091 0,2.0726 -9.08997,1.1148 -18.81732,-1.9829 -9.38295,-2.9881 -11.72211,-2.8414 -7.45591,0.4671 5.80795,4.5042 -0.98219,5.3798 -10.0189,1.292 -8.32422,-3.7657 -16.47503,-11.9119 -21.24014,-21.22841 -2.23167,-4.363 -4.66697,-7.93276 -5.412,-7.93276 -1.28596,0 -0.78265,7.03242 1.35356,18.91127 1.21198,6.7398 -1.29931,6.4448 -5.64759,-0.6636 -4.9851,-8.1494 -7.77446,-17.28195 -9.37856,-30.70557 -1.51434,-12.67197 -2.34215,-14.70705 -4.51019,-11.087 -2.77872,4.63985 -3.66519,1.99487 -4.56344,-13.61611 -1.6369,-28.44831 -6.92279,-45.44949 -16.69601,-53.70039 -6.34108,-5.35333 -10.55629,-6.62832 -18.58611,-5.62187 -8.14158,1.02045 -8.82568,2.08839 -6.78801,10.59694 2.16378,9.03507 -0.50302,21.814 -7.10131,34.02841 -2.37338,4.39343 -4.31518,8.26582 -4.31518,8.60533 0,0.33954 2.06124,0.80446 4.58048,1.03317 5.48671,0.49816 9.0617,5.65032 14.57128,20.9998 7.57762,21.11039 9.64428,41.04929 5.82642,56.21329 -3.11417,12.3693 -4.53591,13.1203 -25.95654,13.7121 -11.5882,0.3201 -19.09639,-0.022 -20.67931,-0.9433 z m 7.02589,-109.14069 c 1.26495,-4.19695 2.54084,-7.63082 2.83509,-7.63082 0.29441,0 2.11038,0.96446 4.03572,2.14328 3.23458,1.98051 3.78007,1.97205 7.18309,-0.11148 3.56991,-2.18579 3.65298,-2.54576 2.7141,-11.76474 -1.09893,-10.79178 -2.25112,-12.1444 -11.44063,-13.43215 -5.1338,-0.71941 -6.75365,-1.64251 -8.53696,-4.86506 -1.84964,-3.34246 -2.92471,-3.91171 -6.7366,-3.5669 -5.17711,0.4683 -5.59505,2.69977 -0.71392,3.81101 2.37878,0.54154 3.23359,1.63481 3.11331,3.9813 -0.0909,1.77911 0.50544,3.63641 1.32601,4.12731 0.96088,0.5748 -0.13633,4.19316 -3.08093,10.16353 -2.51513,5.099 -4.96265,12.34483 -5.43869,16.10181 l -0.86589,6.83084 3.75763,-0.88127 c 3.53384,-0.82882 3.75766,-0.60126 3.75766,3.821 0,2.58629 0.74119,6.3835 1.64696,8.43825 1.63534,3.7097 1.65565,3.68936 2.89547,-2.89959 0.68678,-3.64952 2.28363,-10.06935 3.54858,-14.26629 z m -22.99532,-21.91745 c 2.02431,-1.38235 4.96308,-9.76913 4.96308,-14.16371 0,-2.5857 1.72225,-5.27237 5.68069,-8.86223 3.12439,-2.83338 5.68071,-5.88131 5.68071,-6.77318 0,-0.89186 -4.43549,2.54134 -9.85673,7.62934 -8.1136,7.61497 -9.49485,9.51147 -7.81096,10.72431 3.05096,2.19735 2.48233,5.31208 -1.50467,8.24273 -1.95274,1.43537 -3.55044,2.9717 -3.55044,3.41406 0,1.12333 4.66982,0.9691 6.39832,-0.21132 z m 20.2399,-36.90794 c -1.39774,-1.3061 -3.91542,0.69897 -3.91542,3.11819 0,2.0258 0.18675,2.02216 2.4008,-0.0468 1.32049,-1.23389 2.00201,-2.61605 1.51462,-3.07147 z m -12.91295,-0.5759 c 4.0691,-3.33853 5.34584,-3.75655 7.77021,-2.54407 2.47224,1.23634 2.82174,1.09117 2.3636,-0.98167 -0.38672,-1.75037 -1.6599,-2.35699 -4.54016,-2.16316 -3.68933,0.24832 -3.92437,-0.0119 -3.00409,-3.31774 3.95475,-14.2069 1.61261,-20.96539 -6.0606,-17.48827 l -3.86343,1.7507 4.26051,0.77279 c 3.73449,0.67736 4.31563,1.39711 4.70674,5.82869 0.30974,3.50866 -0.8626,7.66966 -3.83091,13.5968 -2.35239,4.69748 -3.91571,8.54088 -3.47404,8.54088 0.44167,0 2.99416,-1.79773 5.67217,-3.99495 z m -97.51557,-7.00478 c 0,-0.21063 -1.27814,-2.72565 -2.84033,-5.58899 -7.40941,-13.58063 -0.15294,-33.61431 13.72597,-37.89454 5.14018,-1.58524 6.0265,-3.16243 2.48985,-4.43061 -12.12558,-4.34808 -25.24606,7.6676 -27.14481,24.85913 -0.96052,8.69658 2.19982,18.24042 7.10283,21.44952 2.6561,1.73848 6.66649,2.70431 6.66649,1.60549 z m 11.66916,-18.43971 c -2.16939,-2.02719 -3.77009,-0.53137 -2.56691,2.39861 0.71045,1.72998 1.32637,1.9014 2.58977,0.72079 1.26338,-1.18063 1.25799,-1.9225 -0.0226,-3.1194 z m 13.60995,-4.00343 c 2.79107,-2.60811 1.94394,-8.39503 -1.77833,-12.14823 -3.98219,-4.01514 -6.71588,-4.40864 -9.90773,-1.42608 -2.78226,2.59999 -2.81392,4.95685 -0.13064,9.80443 2.90737,5.25393 8.36581,6.99521 11.81726,3.76988 z"
       id="path6285"
       inkscape:connector-curvature="0" />
    <g
       id="g5027"
       style="stroke:#000000;stroke-opacity:1;fill:none;stroke-width:0.03543307;stroke-miterlimit:4;stroke-dasharray:none">
      <path
         inkscape:connector-curvature="0"
         id="path4927"
         d="m 437.59707,199.31289 c -1.64111,-3.76008 -2.12441,-5.40436 -1.71385,-5.83097 1.11506,-1.15866 2.29193,0.1396 4.35715,4.80664 2.43035,5.49218 2.5368,6.26115 0.86664,6.26115 -1.03552,0 -1.57673,-0.80748 -3.50994,-5.23682 z m 5.26201,4.51153 c 0,-1.57274 4.73299,-10.79102 5.54048,-10.79102 1.61842,0 1.40416,1.71865 -0.82071,6.58343 -1.89025,4.13315 -2.45572,4.93288 -3.48789,4.93288 -0.67753,0 -1.23188,-0.32639 -1.23188,-0.72529 z m 53.84707,-4.51153 c -1.64111,-3.76008 -2.12441,-5.40436 -1.71385,-5.83097 1.11506,-1.15866 2.29193,0.13961 4.35715,4.80664 2.43035,5.49218 2.5368,6.26115 0.86665,6.26115 -1.03553,0 -1.57674,-0.80748 -3.50995,-5.23682 z m 5.26201,4.51153 c 0,-1.57274 4.73299,-10.79102 5.54049,-10.79102 1.6184,0 1.40415,1.71865 -0.82071,6.58343 -1.89026,4.13315 -2.45573,4.93288 -3.4879,4.93288 -0.67753,0 -1.23188,-0.32639 -1.23188,-0.72529 z m 53.84707,-4.51153 c -1.64111,-3.76008 -2.12441,-5.40436 -1.71385,-5.83097 1.11505,-1.15866 2.29193,0.13961 4.35715,4.80664 2.43035,5.49218 2.53679,6.26115 0.86665,6.26115 -1.03553,0 -1.57674,-0.80748 -3.50995,-5.23682 z m 5.26201,4.51153 c 0,-1.57274 4.73299,-10.79102 5.54049,-10.79102 1.6184,0 1.40415,1.71865 -0.82071,6.58343 -1.89026,4.13315 -2.45574,4.93288 -3.4879,4.93288 -0.67753,0 -1.23188,-0.32639 -1.23188,-0.72529 z m 46.45847,-4.51153 c -1.64112,-3.76008 -2.12447,-5.40436 -1.71391,-5.83097 1.11505,-1.15866 2.29199,0.13961 4.35719,4.80664 2.4303,5.49218 2.53679,6.26115 0.86661,6.26115 -1.0355,0 -1.57669,-0.80748 -3.50989,-5.23682 z m 5.26197,4.51153 c 0,-1.57274 4.73304,-10.79102 5.54046,-10.79102 1.61842,0 1.40418,1.71865 -0.82068,6.58343 -1.89023,4.13315 -2.45573,4.93288 -3.48786,4.93288 -0.67756,0 -1.23192,-0.32639 -1.23192,-0.72529 z m 46.45847,-4.51153 c -1.64112,-3.76008 -2.12446,-5.40436 -1.7139,-5.83097 1.11504,-1.15866 2.29199,0.13961 4.35718,4.80664 2.43031,5.49218 2.53679,6.26115 0.86662,6.26115 -1.03551,0 -1.5767,-0.80748 -3.5099,-5.23682 z m 5.26198,4.51153 c 0,-1.57274 4.73303,-10.79102 5.54047,-10.79102 1.6184,0 1.40417,1.71865 -0.8207,6.58343 -1.89022,4.13315 -2.45572,4.93288 -3.48785,4.93288 -0.67756,0 -1.23192,-0.32639 -1.23192,-0.72529 z m 46.45847,-4.51153 c -1.64112,-3.76008 -2.12446,-5.40436 -1.71391,-5.83097 1.11505,-1.15866 2.292,0.13961 4.35718,4.80664 2.43032,5.49218 2.53679,6.26115 0.86663,6.26115 -1.03551,0 -1.57669,-0.80748 -3.5099,-5.23682 z m 5.26197,4.51153 c 0,-1.57274 4.73303,-10.79102 5.54047,-10.79102 1.6184,0 1.40417,1.71865 -0.82069,6.58343 -1.89022,4.13315 -2.45573,4.93288 -3.48786,4.93288 -0.67756,0 -1.23192,-0.32639 -1.23192,-0.72529 z m -293.43435,-19.56535 0,-6.58075 1.3194,0 1.31939,0 0,6.58075 0,6.58075 -1.31939,0 -1.3194,0 0,-6.58075 z m 162.54996,0 0,-6.58075 1.3194,0 1.3194,0 0,6.58075 0,6.58075 -1.3194,0 -1.3194,0 0,-6.58075 z m 14.77727,0 0,-6.58075 1.3194,0 1.3194,0 0,6.58075 0,6.58075 -1.3194,0 -1.3194,0 0,-6.58075 z m -202.13194,5.28581 c 0,-0.48193 -0.42755,-0.66162 -1.20622,-0.50695 -1.07548,0.21363 -1.45587,-0.33243 -3.50994,-5.03868 -1.6541,-3.78983 -2.14249,-5.4458 -1.73194,-5.87241 1.12369,-1.16762 2.31307,0.15861 4.38749,4.89229 l 2.10548,4.80451 10.92858,-0.14053 c 6.01072,-0.0773 11.26005,0.0829 11.66517,0.35595 0.40514,0.27307 0.59072,0.89156 0.41239,1.37442 -0.28338,0.76738 -1.75528,0.87794 -11.68761,0.87794 -9.23451,0 -11.3634,-0.13986 -11.3634,-0.74654 z m 29.64977,-0.48735 c 0.15275,-1.11758 0.492,-1.24722 3.59909,-1.3753 3.72515,-0.15357 5.08554,0.36072 4.57943,1.73125 -0.25794,0.69845 -1.14441,0.87794 -4.33569,0.87794 -3.85817,0 -4.00503,-0.0472 -3.84283,-1.23389 z m 36.94318,0 0.16864,-1.23389 14.51339,-0.1336 c 7.98236,-0.0734 14.84486,0.0867 15.25,0.35596 0.40512,0.26925 0.5907,0.88462 0.41239,1.36748 -0.28683,0.77668 -2.06532,0.87794 -15.41866,0.87794 l -15.09441,0 0.16865,-1.23389 z m 51.72044,0 c 0.16521,-1.20874 0.32241,-1.23581 7.71473,-1.32816 l 7.54609,-0.0943 2.33186,-4.97839 c 2.26453,-4.83466 3.56965,-6.09868 4.28814,-4.15311 0.48526,1.31405 -4.02656,10.69103 -5.14411,10.69103 -0.51527,0 -1.08364,0.24678 -1.26303,0.5484 -0.19321,0.32483 -3.44816,0.54839 -7.98426,0.54839 -7.63983,0 -7.65766,-0.003 -7.48942,-1.23389 z m 29.45931,0.48735 c 0,-0.48193 -0.42756,-0.66162 -1.20622,-0.50695 -1.07549,0.21363 -1.45587,-0.33243 -3.50994,-5.03868 -1.6541,-3.78983 -2.14249,-5.4458 -1.73194,-5.87241 1.12377,-1.16771 2.3131,0.15874 4.38664,4.89229 l 2.1046,4.80451 3.5408,-0.15167 c 3.81585,-0.16345 5.20306,0.35168 4.6898,1.74151 -0.43779,1.18547 -8.27374,1.30992 -8.27374,0.1314 z m 22.16591,0 c 0,-0.48193 -0.42756,-0.66162 -1.20622,-0.50695 -1.07549,0.21363 -1.45588,-0.33243 -3.50995,-5.03868 -1.65409,-3.78983 -2.14249,-5.4458 -1.73193,-5.87241 1.12372,-1.16766 2.31309,0.15867 4.38707,4.89229 l 2.10505,4.80451 7.23467,-0.14452 c 7.37892,-0.14741 8.95798,0.17925 8.38369,1.73436 -0.27672,0.74926 -1.44834,0.87794 -7.99332,0.87794 -6.1179,0 -7.66906,-0.15099 -7.66906,-0.74654 z m 22.26115,-0.48735 c 0.15275,-1.11758 0.49196,-1.24722 3.59906,-1.3753 3.72514,-0.15357 5.08558,0.36072 4.57944,1.73125 -0.25797,0.69845 -1.14443,0.87794 -4.33574,0.87794 -3.85813,0 -4.00497,-0.0472 -3.84276,-1.23389 z m 36.94318,0 0.16863,-1.23389 14.51339,-0.1336 c 7.98234,-0.0734 14.84481,0.0867 15.24997,0.35596 0.40515,0.26925 0.59076,0.88462 0.41241,1.36748 -0.28685,0.77668 -2.06536,0.87794 -15.41869,0.87794 l -15.09434,0 0.16863,-1.23389 z m 51.72044,0 0.16863,-1.23389 14.51339,-0.1336 c 7.98234,-0.0734 14.84483,0.0867 15.24997,0.35596 0.40515,0.26925 0.59076,0.88462 0.41241,1.36748 -0.28684,0.77668 -2.06535,0.87794 -15.41868,0.87794 l -15.09435,0 0.16863,-1.23389 z m -218.87855,-1.21627 c -0.42059,-1.04598 -0.76471,-2.90474 -0.76471,-4.13059 0,-1.22584 0.34412,-3.0846 0.76471,-4.13058 0.60081,-1.49416 1.06552,-1.90177 2.16824,-1.90177 1.28639,0 1.36668,0.12589 0.96182,1.50809 -0.53251,1.81802 -0.50408,6.96127 0.0501,9.04853 0.36429,1.37226 0.27355,1.50809 -1.0075,1.50809 -1.10765,0 -1.57092,-0.40553 -2.17256,-1.90177 z m 162.54996,0 c -0.4206,-1.04598 -0.7647,-2.90474 -0.7647,-4.13059 0,-1.22584 0.3441,-3.0846 0.7647,-4.13058 0.6008,-1.49416 1.06557,-1.90177 2.16829,-1.90177 1.28638,0 1.3666,0.12589 0.96179,1.50809 -0.53248,1.81802 -0.50411,6.96127 0.0498,9.04853 0.36428,1.37226 0.27351,1.50809 -1.00756,1.50809 -1.10762,0 -1.57087,-0.40553 -2.17251,-1.90177 z m -172.28659,0.62808 c 0,-1.57274 4.73299,-10.79102 5.54049,-10.79102 1.61841,0 1.40416,1.71865 -0.82071,6.58344 -1.89026,4.13314 -2.45573,4.93287 -3.48789,4.93287 -0.67753,0 -1.23189,-0.32639 -1.23189,-0.72529 z m 59.10908,0 c 0,-1.57274 4.73299,-10.79102 5.54049,-10.79102 1.61841,0 1.40416,1.71865 -0.82071,6.58344 -1.89025,4.13314 -2.45573,4.93287 -3.48789,4.93287 -0.67753,0 -1.23189,-0.32639 -1.23189,-0.72529 z m 162.54998,0 c 0,-1.57274 4.73303,-10.79102 5.54045,-10.79102 1.61841,0 1.40418,1.71865 -0.82068,6.58344 -1.89023,4.13314 -2.45573,4.93287 -3.48786,4.93287 -0.67756,0 -1.23191,-0.32639 -1.23191,-0.72529 z m 51.72044,-2.50113 c 0,-1.16569 0.31201,-1.67745 1.1875,-1.94738 l 1.18741,-0.36615 -1.18741,-0.50273 c -0.79147,-0.33506 -1.1875,-0.96584 -1.1875,-1.89138 0,-1.75484 0.74545,-1.75985 4.50918,-0.0303 3.9983,1.83737 3.86395,3.15861 -0.50868,5.00201 -3.92409,1.65432 -4.0005,1.64928 -4.0005,-0.26409 z m 5.27759,-1.98334 c 0.37873,-0.47414 0.42998,-0.82259 0.1211,-0.82259 -0.29479,0 -0.67258,0.37016 -0.8397,0.82259 -0.1671,0.45242 -0.22157,0.8226 -0.12108,0.8226 0.1005,0 0.47835,-0.37018 0.83968,-0.8226 z m -165.71653,-15.08088 0,-6.58075 1.31941,0 1.3194,0 0,6.58075 0,6.58075 -1.3194,0 -1.31941,0 0,-6.58075 z m -83.81855,4.79846 c 0.16431,-1.20206 0.35243,-1.23742 7.29341,-1.37105 7.28823,-0.14031 8.84345,0.18432 8.27375,1.727 -0.27681,0.74952 -1.45137,0.87794 -8.03002,0.87794 -7.6893,0 -7.70541,-0.003 -7.53714,-1.23389 z m 29.45932,0.48735 c 0,-0.48193 -0.42756,-0.66162 -1.20622,-0.50695 -1.07549,0.21363 -1.45588,-0.33242 -3.50995,-5.03867 -1.65409,-3.78984 -2.14249,-5.44581 -1.73193,-5.87242 1.12376,-1.1677 2.3131,0.15873 4.38663,4.8923 l 2.1046,4.8045 3.54081,-0.15167 c 3.81584,-0.16345 5.20306,0.35168 4.68979,1.74151 -0.43778,1.18548 -8.27373,1.30992 -8.27373,0.1314 z m 133.09067,-0.48735 c 0.16432,-1.20206 0.35238,-1.23742 7.29339,-1.37105 7.28823,-0.14031 8.84348,0.18432 8.27375,1.727 -0.2768,0.74952 -1.45138,0.87794 -8.03006,0.87794 -7.68924,0 -7.70537,-0.003 -7.53708,-1.23389 z m 29.45929,0.48735 c 0,-0.48193 -0.42752,-0.66162 -1.20624,-0.50695 -1.07545,0.21363 -1.45586,-0.33242 -3.50991,-5.03867 -1.65412,-3.78984 -2.14253,-5.44581 -1.73197,-5.87242 1.12383,-1.1677 2.3131,0.15873 4.38665,4.8923 l 2.10463,4.8045 3.5408,-0.15167 c 3.81583,-0.16345 5.20303,0.35168 4.6898,1.74151 -0.43783,1.18548 -8.27376,1.30992 -8.27376,0.1314 z m 14.77727,0 c 0,-0.48193 -0.42752,-0.66162 -1.20624,-0.50695 -1.07545,0.21363 -1.45586,-0.33242 -3.5099,-5.03867 -1.65413,-3.78984 -2.14254,-5.44581 -1.73199,-5.87242 1.12375,-1.16762 2.31311,0.15861 4.3875,4.8923 l 2.10547,4.8045 10.9286,-0.14053 c 6.01072,-0.0773 11.26003,0.0829 11.66517,0.35595 0.40515,0.27307 0.59076,0.89155 0.41241,1.37442 -0.28338,0.76738 -1.75528,0.87794 -11.68763,0.87794 -9.23445,0 -11.36339,-0.13986 -11.36339,-0.74654 z m -300.27964,-5.58707 c -1.64111,-3.76008 -2.12441,-5.40436 -1.71385,-5.83097 1.11506,-1.15867 2.29193,0.13961 4.35714,4.80664 2.43037,5.49217 2.5368,6.26115 0.86665,6.26115 -1.03552,0 -1.57673,-0.80747 -3.50994,-5.23682 z m 71.75972,4.51153 c 0,-1.57274 4.73299,-10.79102 5.54049,-10.79102 1.61841,0 1.40415,1.71866 -0.82072,6.58344 -1.89026,4.13315 -2.45572,4.93287 -3.48788,4.93287 -0.67754,0 -1.23189,-0.32638 -1.23189,-0.72529 z m 7.38864,0 c 0,-1.57274 4.73299,-10.79102 5.54048,-10.79102 1.61841,0 1.40415,1.71866 -0.82071,6.58344 -1.89026,4.13315 -2.45572,4.93287 -3.48789,4.93287 -0.67754,0 -1.23188,-0.32638 -1.23188,-0.72529 z m 157.28799,-4.51153 c -1.64113,-3.76008 -2.12447,-5.40436 -1.71392,-5.83097 1.11506,-1.15867 2.29201,0.13961 4.35719,4.80664 2.43031,5.49217 2.5368,6.26115 0.86663,6.26115 -1.03551,0 -1.5767,-0.80747 -3.5099,-5.23682 z m 5.26197,4.51153 c 0,-1.57274 4.73304,-10.79102 5.54047,-10.79102 1.61841,0 1.40418,1.71866 -0.82069,6.58344 -1.89023,4.13315 -2.45573,4.93287 -3.48785,4.93287 -0.67756,0 -1.23193,-0.32638 -1.23193,-0.72529 z m 90.79028,-4.51153 c -1.64112,-3.76008 -2.12447,-5.40436 -1.71391,-5.83097 1.11506,-1.15867 2.292,0.13961 4.35719,4.80664 2.4303,5.49217 2.53679,6.26115 0.86662,6.26115 -1.03551,0 -1.5767,-0.80747 -3.5099,-5.23682 z m -295.56101,2.47661 c 0,-0.91487 -0.60992,-2.91409 -1.35537,-4.44268 -0.74545,-1.52859 -1.22789,-3.12444 -1.07208,-3.54634 0.42411,-1.14843 2.26157,-0.92436 3.143,0.38327 l 0.77542,1.15034 0.59248,-1.15034 c 0.74767,-1.45167 3.19517,-1.59785 3.19193,-0.19065 -8.5e-4,0.52782 -0.59495,2.17371 -1.3194,3.65751 -0.72445,1.4838 -1.31719,3.39633 -1.31719,4.25006 0,1.29014 -0.22279,1.55225 -1.31939,1.55225 -1.11738,0 -1.3194,-0.2547 -1.3194,-1.66342 z m 1.9875,-3.54634 c 0.46696,-0.93595 0.37777,-1.09679 -0.60823,-1.09679 -1.00098,0 -1.08295,0.15961 -0.61319,1.19394 0.29823,0.65666 0.57194,1.15022 0.60823,1.09679 0.0364,-0.0534 0.31222,-0.5907 0.61319,-1.19394 z m 160.56246,3.54634 c 0,-0.91487 -0.60992,-2.91409 -1.35537,-4.44268 -0.74545,-1.52859 -1.22786,-3.12444 -1.07207,-3.54634 0.42407,-1.14843 2.2616,-0.92436 3.143,0.38327 l 0.77542,1.15034 0.59245,-1.15034 c 0.74772,-1.45167 3.19518,-1.59785 3.19197,-0.19065 0,0.52782 -0.59497,2.17371 -1.3194,3.65751 -0.72451,1.4838 -1.3172,3.39633 -1.3172,4.25006 0,1.29014 -0.22276,1.55225 -1.3194,1.55225 -1.11742,0 -1.3194,-0.2547 -1.3194,-1.66342 z m 1.9875,-3.54634 c 0.46696,-0.93595 0.37779,-1.09679 -0.60823,-1.09679 -1.00097,0 -1.08296,0.15961 -0.61322,1.19394 0.29825,0.65666 0.57201,1.15022 0.60824,1.09679 0.0363,-0.0534 0.31226,-0.5907 0.61321,-1.19394 z m 12.78977,3.54634 c 0,-0.91487 -0.60992,-2.91409 -1.35537,-4.44268 -0.74545,-1.52859 -1.22786,-3.12444 -1.07207,-3.54634 0.42415,-1.14843 2.2616,-0.92436 3.143,0.38327 l 0.77543,1.15034 0.59244,-1.15034 c 0.74773,-1.45167 3.19518,-1.59785 3.19197,-0.19065 0,0.52782 -0.59497,2.17371 -1.31939,3.65751 -0.72443,1.4838 -1.31721,3.39633 -1.31721,4.25006 0,1.29014 -0.22276,1.55225 -1.3194,1.55225 -1.11733,0 -1.3194,-0.2547 -1.3194,-1.66342 z m 1.9875,-3.54634 c 0.46697,-0.93595 0.37779,-1.09679 -0.60823,-1.09679 -1.00097,0 -1.08296,0.15961 -0.61322,1.19394 0.29826,0.65666 0.57202,1.15022 0.60824,1.09679 0.0364,-0.0534 0.31226,-0.5907 0.61321,-1.19394 z m -85.37352,3.08013 c 0,-1.16569 0.31205,-1.67744 1.18746,-1.94738 l 1.18746,-0.36616 -1.18746,-0.50272 c -0.79144,-0.33506 -1.18746,-0.96584 -1.18746,-1.89138 0,-1.75484 0.74547,-1.75984 4.5092,-0.0303 3.99828,1.83737 3.8639,3.15861 -0.50872,5.002 -3.92407,1.65431 -4.00048,1.64926 -4.00048,-0.2641 z m 5.2776,-1.98334 c 0.37869,-0.47413 0.42998,-0.82259 0.12107,-0.82259 -0.29474,0 -0.67261,0.37016 -0.83969,0.82259 -0.16707,0.45243 -0.22156,0.8226 -0.12108,0.8226 0.10051,0 0.47834,-0.37017 0.8397,-0.8226 z m 34.43632,2.28585 c -2.37224,-1.01154 -2.77075,-1.39324 -2.77075,-2.65395 0,-1.28747 0.37529,-1.61838 2.98696,-2.63373 1.64282,-0.63871 3.32282,-1.02735 3.73331,-0.86366 1.10327,0.43992 0.58455,2.09463 -0.89727,2.86229 l -1.29242,0.66953 1.46563,0.57902 c 1.09651,0.43319 1.42317,0.88813 1.29708,1.80642 -0.2215,1.61317 -1.17285,1.6624 -4.52254,0.23408 z m -0.47917,-2.80631 c 0.19576,-0.53009 0.0398,-0.69354 -0.46826,-0.49094 -0.41896,0.16706 -0.63033,0.52466 -0.46974,0.79467 0.40449,0.68006 0.5978,0.61747 0.938,-0.30373 z m -91.48296,-9.27461 c 0,-0.48193 -0.42755,-0.66162 -1.20621,-0.50695 -1.07548,0.21363 -1.45587,-0.33242 -3.50995,-5.03866 -1.6541,-3.78985 -2.14249,-5.44582 -1.73194,-5.87243 1.12373,-1.16766 2.31309,0.15867 4.38708,4.8923 l 2.10505,4.80451 7.23468,-0.14453 c 7.37895,-0.14741 8.95797,0.17925 8.38367,1.73436 -0.27669,0.74926 -1.44831,0.87795 -7.9933,0.87795 -6.11791,0 -7.66908,-0.151 -7.66908,-0.74655 z m 162.54997,0 c 0,-0.48193 -0.42752,-0.66162 -1.20624,-0.50695 -1.07545,0.21363 -1.45586,-0.33242 -3.5099,-5.03866 -1.65413,-3.78985 -2.14254,-5.44582 -1.73199,-5.87243 1.12375,-1.16766 2.31311,0.15867 4.38709,4.8923 l 2.10504,4.80451 7.23469,-0.14453 c 7.37902,-0.14741 8.95799,0.17925 8.3837,1.73436 -0.27672,0.74926 -1.44834,0.87795 -7.99332,0.87795 -6.11787,0 -7.66907,-0.151 -7.66907,-0.74655 z m 73.98161,-0.48734 c 0.16828,-1.23167 0.18897,-1.23409 11.41446,-1.33968 l 11.24576,-0.10578 2.32645,-4.96688 c 2.2594,-4.82366 3.5647,-6.08596 4.28279,-4.1416 0.4852,1.31406 -4.02659,10.69103 -5.14418,10.69103 -0.51526,0 -1.08355,0.24678 -1.263,0.5484 -0.20105,0.33809 -4.67957,0.5484 -11.6786,0.5484 l -11.35231,0 0.16863,-1.23389 z M 383.75,157.75918 c 0,-1.57274 4.73299,-10.79101 5.54048,-10.79101 1.61842,0 1.40417,1.71865 -0.82071,6.58343 -1.89026,4.13315 -2.45572,4.93287 -3.48789,4.93287 -0.67753,0 -1.23188,-0.32638 -1.23188,-0.72529 z m 112.95615,-4.51152 c -1.64111,-3.76009 -2.12441,-5.40437 -1.71385,-5.83098 1.11506,-1.15867 2.29193,0.13961 4.35715,4.80664 2.43035,5.49217 2.5368,6.26115 0.86665,6.26115 -1.03553,0 -1.57674,-0.80747 -3.50995,-5.23681 z m 14.77727,0 c -1.64111,-3.76009 -2.12441,-5.40437 -1.71385,-5.83098 1.11506,-1.15867 2.29193,0.13961 4.35715,4.80664 2.43035,5.49217 2.5368,6.26115 0.86665,6.26115 -1.03553,0 -1.57674,-0.80747 -3.50995,-5.23681 z m 22.16591,0 c -1.64112,-3.76009 -2.12441,-5.40437 -1.71386,-5.83098 1.11507,-1.15867 2.29193,0.13961 4.35715,4.80664 2.43036,5.49217 2.5368,6.26115 0.86665,6.26115 -1.03553,0 -1.57673,-0.80747 -3.50994,-5.23681 z m 5.26201,4.51152 c 0,-1.57274 4.73299,-10.79101 5.54048,-10.79101 1.6184,0 1.40415,1.71865 -0.82071,6.58343 -1.89026,4.13315 -2.45573,4.93287 -3.48789,4.93287 -0.67754,0 -1.23188,-0.32638 -1.23188,-0.72529 z m 22.1659,0 c 0,-1.57274 4.73299,-10.79101 5.54049,-10.79101 1.6184,0 1.40415,1.71865 -0.82071,6.58343 -1.89026,4.13315 -2.45574,4.93287 -3.4879,4.93287 -0.67753,0 -1.23188,-0.32638 -1.23188,-0.72529 z m 7.38863,0 c 0,-1.57274 4.73299,-10.79101 5.5405,-10.79101 1.61837,0 1.40415,1.71865 -0.82072,6.58343 -1.89025,4.13315 -2.45573,4.93287 -3.48789,4.93287 -0.67753,0 -1.23189,-0.32638 -1.23189,-0.72529 z m 46.45848,-4.51152 c -1.64112,-3.76009 -2.12447,-5.40437 -1.71391,-5.83098 1.11504,-1.15867 2.29199,0.13961 4.35718,4.80664 2.43031,5.49217 2.53679,6.26115 0.86662,6.26115 -1.0355,0 -1.57669,-0.80747 -3.50989,-5.23681 z m 44.3318,0 c -1.64112,-3.76009 -2.12446,-5.40437 -1.7139,-5.83098 1.11504,-1.15867 2.29199,0.13961 4.35718,4.80664 2.43031,5.49217 2.53679,6.26115 0.86662,6.26115 -1.03551,0 -1.5767,-0.80747 -3.5099,-5.23681 z m 20.03924,4.51152 c 0,-1.57274 4.73304,-10.79101 5.54047,-10.79101 1.61841,0 1.40418,1.71865 -0.82068,6.58343 -1.89023,4.13315 -2.45574,4.93287 -3.48786,4.93287 -0.67756,0 -1.23193,-0.32638 -1.23193,-0.72529 z m -255.41706,-2.816 c -0.42155,-0.5278 -1.16061,-0.69079 -2.17566,-0.47985 -1.35975,0.28259 -1.53726,0.16591 -1.53726,-1.01039 0,-0.73142 0.285,-1.62599 0.63332,-1.98793 0.8549,-0.88832 2.81833,-0.83189 3.72186,0.10696 0.43483,0.45183 1.31452,0.65018 2.14874,0.48446 1.07874,-0.21427 1.41248,-0.0626 1.41248,0.64201 0,2.63415 -2.72865,4.09129 -4.20348,2.24474 z m -1.07411,-16.74935 0,-6.58074 1.3194,0 1.31939,0 0,6.58074 0,6.58075 -1.31939,0 -1.3194,0 0,-6.58075 z m 34.30437,5.28581 c 0,-0.48193 -0.42755,-0.66162 -1.20622,-0.50695 -1.07548,0.21363 -1.45587,-0.33242 -3.50994,-5.03866 -1.65411,-3.78985 -2.1425,-5.44582 -1.73194,-5.87243 1.12364,-1.16758 2.31304,0.15857 4.38784,4.8923 l 2.1058,4.80451 18.31688,-0.13651 c 10.18192,-0.0759 18.64402,0.0822 19.05348,0.35594 0.40512,0.27086 0.5907,0.88754 0.41239,1.37041 -0.28887,0.78219 -2.36923,0.87794 -19.07626,0.87794 -15.46767,0 -18.75203,-0.13076 -18.75203,-0.74655 z m 51.81568,-0.48734 c 0.16794,-1.22867 0.21444,-1.23446 10.98772,-1.36881 5.95049,-0.0742 11.15054,0.086 11.55568,0.35595 0.40513,0.26998 0.59069,0.88594 0.41238,1.36881 -0.28344,0.76749 -1.75834,0.87794 -11.72433,0.87794 l -11.4001,0 0.16865,-1.23389 z m 36.94317,0 c 0.16794,-1.22867 0.21445,-1.23446 10.98772,-1.36881 5.95049,-0.0742 11.15054,0.086 11.55568,0.35595 0.40513,0.26998 0.5907,0.88594 0.41239,1.36881 -0.28345,0.76749 -1.75835,0.87794 -11.72434,0.87794 l -11.40009,0 0.16864,-1.23389 z m 29.55456,0 0.16863,-1.23389 18.2077,-0.13273 c 10.01427,-0.073 18.53915,0.0872 18.9443,0.35595 0.40515,0.26877 0.59075,0.88375 0.41241,1.36662 -0.28887,0.78224 -2.3723,0.87794 -19.11301,0.87794 l -18.78866,0 0.16863,-1.23389 z m 44.33181,0 0.16863,-1.23389 18.20771,-0.13273 c 10.01425,-0.073 18.53913,0.0872 18.94429,0.35595 0.40515,0.26877 0.59076,0.88375 0.41241,1.36662 -0.28887,0.78224 -2.3723,0.87794 -19.113,0.87794 l -18.78867,0 0.16863,-1.23389 z m 66.49772,0 0.16863,-1.23389 21.90202,-0.13213 c 12.14388,-0.0733 22.23017,0.0853 22.63861,0.35595 0.40515,0.26844 0.59075,0.88315 0.41241,1.36602 -0.29023,0.78597 -2.67925,0.87794 -22.80733,0.87794 l -22.48298,0 0.16864,-1.23389 z m -295.11289,-0.5882 c 0,-1.57274 4.73299,-10.79101 5.54048,-10.79101 1.61841,0 1.40416,1.71865 -0.82071,6.58343 -1.89026,4.13315 -2.45573,4.93288 -3.48789,4.93288 -0.67754,0 -1.23188,-0.32639 -1.23188,-0.7253 z m 6.95611,-14.76688 c 0.16793,-1.22867 0.21444,-1.23446 10.98771,-1.36881 5.95048,-0.0742 11.15055,0.086 11.55567,0.35595 0.40514,0.26998 0.59072,0.88594 0.41239,1.36881 -0.28343,0.7675 -1.75834,0.87794 -11.72432,0.87794 l -11.4001,0 0.16865,-1.23389 z m 29.55453,0 c 0.16793,-1.22867 0.21445,-1.23446 10.98772,-1.36881 5.95049,-0.0742 11.15054,0.086 11.55569,0.35595 0.40512,0.26998 0.59068,0.88594 0.41237,1.36881 -0.28344,0.7675 -1.75834,0.87794 -11.72432,0.87794 l -11.4001,0 0.16864,-1.23389 z"
         style="fill:none;stroke:#000000;stroke-opacity:1;stroke-width:0.03543307;stroke-miterlimit:4;stroke-dasharray:none" />
    </g>
    <g
       id="g5030"
       style="fill:none;stroke:#000000;stroke-opacity:1;stroke-width:0.03543307;stroke-miterlimit:4;stroke-dasharray:none">
      <path
         inkscape:connector-curvature="0"
         id="path5006"
         d="m 462.20596,107.95637 c -1.94349,-4.28532 -2.51583,-6.15929 -2.02963,-6.64549 1.32051,-1.32051 2.71422,0.1591 5.15996,5.47807 2.87815,6.25937 3.0042,7.13576 1.02633,7.13576 -1.22633,0 -1.86725,-0.92027 -4.15666,-5.96834 z m 6.23154,5.14173 c 0,-1.79243 5.60505,-12.29839 6.56133,-12.29839 1.9166,0 1.66287,1.95872 -0.97193,7.50306 -2.23854,4.7105 -2.9082,5.62194 -4.13054,5.62194 -0.80237,0 -1.45886,-0.37198 -1.45886,-0.82661 z m 55.01846,-5.14173 c -1.94349,-4.28532 -2.51583,-6.15929 -2.02963,-6.64549 1.32051,-1.32051 2.71422,0.15911 5.15996,5.47807 2.87815,6.25937 3.0042,7.13576 1.02633,7.13576 -1.22633,0 -1.86725,-0.92027 -4.15666,-5.96834 z m 6.23154,5.14173 c 0,-1.79243 5.60505,-12.29839 6.56133,-12.29839 1.9166,0 1.66287,1.95872 -0.97193,7.50306 -2.23854,4.7105 -2.9082,5.62194 -4.13054,5.62194 -0.80237,0 -1.45886,-0.37198 -1.45886,-0.82661 z m 133.7685,-5.14173 c -1.9435,-4.28532 -2.5159,-6.15929 -2.0297,-6.64549 1.3205,-1.32051 2.7143,0.15911 5.16,5.47807 2.8781,6.25937 3.0042,7.13576 1.0263,7.13576 -1.2263,0 -1.8672,-0.92027 -4.1566,-5.96834 z m 6.2315,5.14173 c 0,-1.79243 5.6051,-12.29839 6.5613,-12.29839 1.9166,0 1.6629,1.95872 -0.9719,7.50306 -2.2385,4.7105 -2.9082,5.62194 -4.1305,5.62194 -0.8024,0 -1.4589,-0.37198 -1.4589,-0.82661 z m -233.75,-22.29839 0,-7.5 1.5625,0 1.5625,0 0,7.5 0,7.5 -1.5625,0 -1.5625,0 0,-7.5 z m 131.25,0 0,-7.5 1.5625,0 1.5625,0 0,7.5 0,7.5 -1.5625,0 -1.5625,0 0,-7.5 z m 35,0 0,-7.5 1.5625,0 1.5625,0 0,7.5 0,7.5 -1.5625,0 -1.5625,0 0,-7.5 z m 26.25,0 0,-7.5 1.5625,0 1.5625,0 0,7.5 0,7.5 -1.5625,0 -1.5625,0 0,-7.5 z m 87.5,0 0,-7.5 1.5625,0 1.5625,0 0,7.5 0,7.5 -1.5625,0 -1.5625,0 0,-7.5 z m -318.125,6.02417 c 0,-0.54925 -0.50633,-0.75404 -1.42846,-0.57776 -1.27365,0.24347 -1.72412,-0.37887 -4.15666,-5.74252 -1.95887,-4.31923 -2.53725,-6.20652 -2.05105,-6.69272 1.33069,-1.3307 2.73924,0.18074 5.19616,5.57569 l 2.49366,5.47564 17.31692,-0.15741 c 9.52431,-0.0866 17.70948,0.096 18.18925,0.40567 0.47978,0.3097 0.69955,1.01335 0.48837,1.56366 -0.33964,0.88509 -2.44223,1.00058 -18.21607,1.00058 -14.62679,0 -17.83212,-0.15294 -17.83212,-0.85083 z m 43.86278,-0.55542 c 0.19457,-1.36997 0.41735,-1.41028 8.63722,-1.56257 8.63109,-0.15991 10.47286,0.21006 9.79819,1.96824 -0.3278,0.85422 -1.71878,1.00058 -9.50955,1.00058 -9.10607,0 -9.12515,-0.003 -8.92586,-1.40625 z m 52.38722,0.55542 c 0,-0.54925 -0.50633,-0.75404 -1.42846,-0.57776 -1.27365,0.24347 -1.72412,-0.37887 -4.15666,-5.74252 -1.95887,-4.31923 -2.53725,-6.20652 -2.05105,-6.69272 1.33072,-1.33072 2.73925,0.18077 5.1959,5.57569 l 2.49341,5.47564 12.94218,-0.16016 c 7.1182,-0.0881 13.33472,0.0945 13.81451,0.40567 0.47977,0.31121 0.69953,1.0161 0.48836,1.56641 -0.3356,0.87457 -2.0787,1.00058 -13.84108,1.00058 -10.93596,0 -13.45711,-0.1594 -13.45711,-0.85083 z m 52.61278,-0.55542 c 0.19457,-1.36997 0.41735,-1.41028 8.63722,-1.56257 8.63109,-0.15991 10.47286,0.21006 9.79819,1.96824 -0.3278,0.85422 -1.71878,1.00058 -9.50955,1.00058 -9.10607,0 -9.12515,-0.003 -8.92586,-1.40625 z m 61.25002,0 c 0.1946,-1.36997 0.4173,-1.41028 8.6372,-1.56257 8.6311,-0.15991 10.4729,0.21006 9.7982,1.96824 -0.3278,0.85422 -1.7188,1.00058 -9.5096,1.00058 -9.106,0 -9.1251,-0.003 -8.9258,-1.40625 z m 70,0 0.1997,-1.40625 17.1875,-0.15226 c 9.4531,-0.0837 17.58,0.0988 18.0598,0.40568 0.4798,0.30686 0.6996,1.00819 0.4884,1.5585 -0.3397,0.88517 -2.4459,1.00058 -18.2596,1.00058 l -17.8755,0 0.1997,-1.40625 z M 477.1875,95.5981 c 0,-1.79243 5.60505,-12.29839 6.56133,-12.29839 1.9166,0 1.66287,1.95872 -0.97193,7.50306 -2.23854,4.7105 -2.9082,5.62194 -4.13054,5.62194 -0.80237,0 -1.45886,-0.37198 -1.45886,-0.82661 z m 183.75,0 c 0,-1.79243 5.6051,-12.29839 6.5613,-12.29839 1.9166,0 1.6629,1.95872 -0.9719,7.50306 -2.2385,4.7105 -2.9082,5.62194 -4.1305,5.62194 -0.8024,0 -1.4589,-0.37198 -1.4589,-0.82661 z m -122.5,-2.8505 c 0,-1.32853 0.36954,-1.91177 1.40625,-2.21941 l 1.40625,-0.4173 -1.40625,-0.57295 c -0.93726,-0.38187 -1.40625,-1.10076 -1.40625,-2.15559 0,-1.99997 0.88282,-2.00567 5.34002,-0.0345 4.73497,2.09402 4.57584,3.59983 -0.60244,5.70073 -4.64709,1.8854 -4.73758,1.87966 -4.73758,-0.30098 z m 6.25,-2.26039 c 0.44847,-0.54037 0.50921,-0.9375 0.14339,-0.9375 -0.34906,0 -0.79654,0.42187 -0.99441,0.9375 -0.19786,0.51562 -0.26239,0.9375 -0.14339,0.9375 0.11899,0 0.56648,-0.42188 0.99441,-0.9375 z m -3.75,-17.1875 0,-7.5 1.5625,0 1.5625,0 0,7.5 0,7.5 -1.5625,0 -1.5625,0 0,-7.5 z m 26.25,0 0,-7.5 1.5625,0 1.5625,0 0,7.5 0,7.5 -1.5625,0 -1.5625,0 0,-7.5 z m 35,0 0,-7.5 1.5625,0 1.5625,0 0,7.5 0,7.5 -1.5625,0 -1.5625,0 0,-7.5 z m 26.25,0 0,-7.5 1.5625,0 1.5625,0 0,7.5 0,7.5 -1.5625,0 -1.5625,0 0,-7.5 z m 87.5,0 0,-7.5 1.5625,0 1.5625,0 0,7.5 0,7.5 -1.5625,0 -1.5625,0 0,-7.5 z m -213.01222,5.46875 c 0.19936,-1.40371 0.22377,-1.40647 13.51757,-1.52681 l 13.31785,-0.12056 2.75511,-5.66069 c 2.67568,-5.49747 4.2215,-6.9361 5.07185,-4.72013 0.57468,1.49761 -4.76846,12.18444 -6.09192,12.18444 -0.61021,0 -1.28329,0.28125 -1.49574,0.625 -0.23814,0.38532 -5.54181,0.625 -13.83036,0.625 l -13.44408,0 0.19972,-1.40625 z m 166.13722,0.55542 c 0,-0.54925 -0.5063,-0.75404 -1.4285,-0.57776 -1.2736,0.24347 -1.7241,-0.37886 -4.1566,-5.74251 -1.9589,-4.31924 -2.5373,-6.20653 -2.0511,-6.69273 1.3308,-1.33072 2.7393,0.18077 5.1959,5.57569 l 2.4934,5.47564 12.9422,-0.16016 c 7.1182,-0.0881 13.3347,0.0945 13.8145,0.40567 0.4798,0.31121 0.6996,1.01609 0.4884,1.56641 -0.3356,0.87457 -2.0787,1.00058 -13.8411,1.00058 -10.9359,0 -13.4571,-0.1594 -13.4571,-0.85083 z M 389.6875,78.0981 c 0,-1.79243 5.60505,-12.29839 6.56133,-12.29839 1.9166,0 1.66287,1.95873 -0.97193,7.50306 -2.23855,4.7105 -2.9082,5.62194 -4.13054,5.62194 -0.80237,0 -1.45886,-0.37198 -1.45886,-0.82661 z m 90.01846,-5.14173 c -1.94349,-4.28532 -2.51583,-6.15929 -2.02963,-6.64549 1.32051,-1.32052 2.71422,0.15911 5.15996,5.47807 2.87815,6.25936 3.0042,7.13576 1.02633,7.13576 -1.22633,0 -1.86725,-0.92027 -4.15666,-5.96834 z m 105.00004,0 c -1.9435,-4.28532 -2.5159,-6.15929 -2.0297,-6.64549 1.3205,-1.32052 2.7143,0.15911 5.16,5.47807 2.8781,6.25936 3.0042,7.13576 1.0263,7.13576 -1.2263,0 -1.8672,-0.92027 -4.1566,-5.96834 z m 6.2315,5.14173 c 0,-1.79243 5.605,-12.29839 6.5613,-12.29839 1.9166,0 1.6629,1.95873 -0.9719,7.50306 -2.2385,4.7105 -2.9082,5.62194 -4.1305,5.62194 -0.8024,0 -1.4589,-0.37198 -1.4589,-0.82661 z m 55.0185,-5.14173 c -1.9435,-4.28532 -2.5159,-6.15929 -2.0297,-6.64549 1.3205,-1.32052 2.7143,0.15911 5.16,5.47807 2.8781,6.25936 3.0042,7.13576 1.0263,7.13576 -1.2263,0 -1.8672,-0.92027 -4.1566,-5.96834 z m 6.2315,5.14173 c 0,-1.79243 5.6051,-12.29839 6.5613,-12.29839 1.9166,0 1.6629,1.95873 -0.9719,7.50306 -2.2385,4.7105 -2.9082,5.62194 -4.1305,5.62194 -0.8024,0 -1.4589,-0.37198 -1.4589,-0.82661 z m -216.25,-2.31917 c 0,-1.04267 -0.72229,-3.32115 -1.60509,-5.06327 -0.8828,-1.74212 -1.45413,-3.56089 -1.26961,-4.04172 0.50225,-1.30885 2.67826,-1.05349 3.7221,0.43681 l 0.91829,1.31103 0.70165,-1.31103 c 0.88543,-1.65445 3.78388,-1.82106 3.78004,-0.21729 -0.001,0.60156 -0.70456,2.47735 -1.5625,4.16842 -0.85793,1.69107 -1.55988,3.87076 -1.55988,4.84375 0,1.47035 -0.26385,1.76908 -1.5625,1.76908 -1.32325,0 -1.5625,-0.29028 -1.5625,-1.89578 z m 2.35371,-4.04172 c 0.55299,-1.06669 0.44737,-1.25 -0.7203,-1.25 -1.18541,0 -1.28248,0.1819 -0.72617,1.36072 0.35318,0.74839 0.67732,1.31089 0.7203,1.25 0.043,-0.0609 0.36975,-0.67322 0.72617,-1.36072 z m 251.39629,-15.9375 0,-7.5 1.5625,0 1.5625,0 0,7.5 0,7.5 -1.5625,0 -1.5625,0 0,-7.5 z m 26.25,0 0,-7.5 1.5625,0 1.5625,0 0,7.5 0,7.5 -1.5625,0 -1.5625,0 0,-7.5 z m -239.375,6.02417 c 0,-0.54925 -0.50633,-0.75404 -1.42846,-0.57776 -1.27365,0.24347 -1.72412,-0.37886 -4.15666,-5.74251 -1.95887,-4.31924 -2.53725,-6.20653 -2.05105,-6.69273 1.33068,-1.33068 2.73923,0.18072 5.19629,5.57569 l 2.49381,5.47564 4.68612,-0.0979 4.68613,-0.0979 2.76612,-5.68332 c 2.68619,-5.51908 4.23161,-6.96109 5.08286,-4.74276 0.57468,1.49761 -4.76846,12.18444 -6.09192,12.18444 -0.61021,0 -1.28329,0.28125 -1.49574,0.625 -0.21245,0.34375 -2.47905,0.625 -5.03689,0.625 -3.50666,0 -4.65061,-0.20929 -4.65061,-0.85083 z m 26.36278,-0.55542 c 0.19457,-1.36998 0.41735,-1.41028 8.63722,-1.56257 8.63109,-0.15991 10.47286,0.21006 9.79819,1.96824 -0.3278,0.85422 -1.71878,1.00058 -9.50955,1.00058 -9.10607,0 -9.12515,-0.003 -8.92586,-1.40625 z m 34.88722,0.55542 c 0,-0.54925 -0.50633,-0.75404 -1.42846,-0.57776 -1.27365,0.24347 -1.72412,-0.37886 -4.15666,-5.74251 -1.95887,-4.31924 -2.53725,-6.20653 -2.05105,-6.69273 1.33082,-1.33082 2.73929,0.1809 5.19488,5.57569 l 2.49238,5.47564 4.1932,-0.17286 c 4.51892,-0.18628 6.16173,0.40081 5.5539,1.98478 -0.51845,1.35107 -9.79819,1.4929 -9.79819,0.14975 z m 26.36278,-0.55542 c 0.19457,-1.36998 0.41735,-1.41028 8.63722,-1.56257 8.6311,-0.15991 10.4729,0.21006 9.7982,1.96824 -0.3278,0.85422 -1.7188,1.00058 -9.50956,1.00058 -9.10607,0 -9.12515,-0.003 -8.92586,-1.40625 z m 34.88722,0.55542 c 0,-0.54925 -0.5063,-0.75404 -1.4285,-0.57776 -1.2736,0.24347 -1.7241,-0.37886 -4.1566,-5.74251 -1.9589,-4.31924 -2.5373,-6.20653 -2.0511,-6.69273 1.3308,-1.33082 2.7393,0.1809 5.1949,5.57569 l 2.4924,5.47564 4.1932,-0.17286 c 4.5189,-0.18628 6.1617,0.40081 5.5539,1.98478 -0.5185,1.35107 -9.7982,1.4929 -9.7982,0.14975 z m 26.3628,-0.55542 c 0.1946,-1.36998 0.4173,-1.41028 8.6372,-1.56257 8.6311,-0.15991 10.4729,0.21006 9.7982,1.96824 -0.3278,0.85422 -1.7188,1.00058 -9.5096,1.00058 -9.106,0 -9.1251,-0.003 -8.9258,-1.40625 z M 398.4375,60.5981 c 0,-1.79243 5.60505,-12.29839 6.56133,-12.29839 1.9166,0 1.66287,1.95873 -0.97193,7.50306 -2.23855,4.7105 -2.9082,5.62194 -4.13054,5.62194 -0.80237,0 -1.45886,-0.37198 -1.45886,-0.82661 z m 28.76846,-5.14173 c -1.94349,-4.28532 -2.51583,-6.15929 -2.02963,-6.64549 1.32052,-1.32052 2.71422,0.15911 5.15996,5.47807 2.87816,6.25936 3.00421,7.13576 1.02633,7.13576 -1.22633,0 -1.86725,-0.92027 -4.15666,-5.96834 z m 14.98154,5.14173 c 0,-1.79243 5.60505,-12.29839 6.56133,-12.29839 1.9166,0 1.66287,1.95873 -0.97193,7.50306 -2.23855,4.7105 -2.9082,5.62194 -4.13054,5.62194 -0.80237,0 -1.45886,-0.37198 -1.45886,-0.82661 z m 213.2813,-2.50574 c -2.8094,-1.15284 -3.2813,-1.58786 -3.2813,-3.02467 0,-1.46732 0.4444,-1.84445 3.5373,-3.00164 1.9455,-0.72791 3.9351,-1.17085 4.4212,-0.9843 1.3065,0.50137 0.6922,2.38723 -1.0626,3.26212 l -1.5306,0.76306 1.7357,0.6599 c 1.2986,0.4937 1.6854,1.01219 1.5361,2.05875 -0.2623,1.83851 -1.389,1.89462 -5.3558,0.26678 z m -0.5675,-3.19832 c 0.2318,-0.60413 0.047,-0.79042 -0.5545,-0.55951 -0.4962,0.19039 -0.7465,0.59794 -0.5563,0.90567 0.479,0.77506 0.7079,0.70372 1.1108,-0.34616 z M 494.17528,43.76846 494.375,42.36221 572.8125,42.21414 c 44.7789,-0.0845 78.8118,0.0896 79.3098,0.40567 0.4798,0.30456 0.6996,1.004 0.4884,1.55432 -0.3493,0.91015 -7.5353,1.00058 -79.50956,1.00058 l -79.12558,0 0.19972,-1.40625 z m 166.25002,0 c 0.1989,-1.4003 0.2539,-1.4069 13.0122,-1.56001 7.0469,-0.0846 13.205,0.098 13.6848,0.40567 0.4798,0.30769 0.6996,1.00969 0.4884,1.56001 -0.3357,0.87471 -2.0823,1.00058 -13.8846,1.00058 l -13.5005,0 0.1997,-1.40625 z m 35,0 c 0.1946,-1.36998 0.4173,-1.41028 8.6372,-1.56257 8.6311,-0.15991 10.4729,0.21006 9.7982,1.96824 -0.3278,0.85422 -1.7188,1.00058 -9.5096,1.00058 -9.106,0 -9.1251,-0.003 -8.9258,-1.40625 z M 407.1875,43.0981 c 0,-1.79243 5.60505,-12.29839 6.56133,-12.29839 1.9166,0 1.66287,1.95873 -0.97193,7.50306 -2.23855,4.7105 -2.9082,5.62194 -4.13054,5.62194 -0.80237,0 -1.45886,-0.37198 -1.45886,-0.82661 z m 55.01846,-5.14173 c -1.94349,-4.28532 -2.51583,-6.15929 -2.02963,-6.64549 1.32051,-1.32052 2.71422,0.15911 5.15996,5.47807 2.87815,6.25936 3.0042,7.13576 1.02633,7.13576 -1.22633,0 -1.86725,-0.92027 -4.15666,-5.96834 z m 227.48154,2.92174 c 0,-2.17376 0.7358,-2.82583 2.5419,-2.25259 2.045,0.64905 1.4114,3.67734 -0.8231,3.93445 -1.5379,0.17695 -1.7188,-8e-5 -1.7188,-1.68186 z m 26.25,0 c 0,-2.17376 0.7358,-2.82583 2.5419,-2.25259 2.045,0.64905 1.4114,3.67734 -0.8231,3.93445 -1.5379,0.17695 -1.7188,-8e-5 -1.7188,-1.68186 z M 415.42528,26.26846 415.625,24.86221 437.1875,24.71094 c 11.85937,-0.0832 21.95504,0.0994 22.43483,0.40567 0.47977,0.30632 0.69953,1.0072 0.48836,1.55752 -0.34211,0.89151 -2.80938,1.00058 -22.63454,1.00058 l -22.25059,0 0.19972,-1.40625 z"
         style="fill:none;stroke:#000000;stroke-opacity:1;stroke-width:0.03543307;stroke-miterlimit:4;stroke-dasharray:none" />
    </g>
    <g
       id="g5033"
       transform="matrix(1.017942,0,0,1.017942,-6.8441332,529.7339)"
       style="stroke-width:0.03480854;stroke-miterlimit:4;stroke-dasharray:none;fill:none;stroke:#000000;stroke-opacity:1">
      <path
         style="fill:none;stroke-width:0.03480854;stroke-miterlimit:4;stroke-dasharray:none;stroke:#000000;stroke-opacity:1"
         d="m 462.20596,107.95637 c -1.94349,-4.28532 -2.51583,-6.15929 -2.02963,-6.64549 1.32051,-1.32051 2.71422,0.1591 5.15996,5.47807 2.87815,6.25937 3.0042,7.13576 1.02633,7.13576 -1.22633,0 -1.86725,-0.92027 -4.15666,-5.96834 z m 6.23154,5.14173 c 0,-1.79243 5.60505,-12.29839 6.56133,-12.29839 1.9166,0 1.66287,1.95872 -0.97193,7.50306 -2.23854,4.7105 -2.9082,5.62194 -4.13054,5.62194 -0.80237,0 -1.45886,-0.37198 -1.45886,-0.82661 z m 55.01846,-5.14173 c -1.94349,-4.28532 -2.51583,-6.15929 -2.02963,-6.64549 1.32051,-1.32051 2.71422,0.15911 5.15996,5.47807 2.87815,6.25937 3.0042,7.13576 1.02633,7.13576 -1.22633,0 -1.86725,-0.92027 -4.15666,-5.96834 z m 6.23154,5.14173 c 0,-1.79243 5.60505,-12.29839 6.56133,-12.29839 1.9166,0 1.66287,1.95872 -0.97193,7.50306 -2.23854,4.7105 -2.9082,5.62194 -4.13054,5.62194 -0.80237,0 -1.45886,-0.37198 -1.45886,-0.82661 z m 133.7685,-5.14173 c -1.9435,-4.28532 -2.5159,-6.15929 -2.0297,-6.64549 1.3205,-1.32051 2.7143,0.15911 5.16,5.47807 2.8781,6.25937 3.0042,7.13576 1.0263,7.13576 -1.2263,0 -1.8672,-0.92027 -4.1566,-5.96834 z m 6.2315,5.14173 c 0,-1.79243 5.6051,-12.29839 6.5613,-12.29839 1.9166,0 1.6629,1.95872 -0.9719,7.50306 -2.2385,4.7105 -2.9082,5.62194 -4.1305,5.62194 -0.8024,0 -1.4589,-0.37198 -1.4589,-0.82661 z m -233.75,-22.29839 0,-7.5 1.5625,0 1.5625,0 0,7.5 0,7.5 -1.5625,0 -1.5625,0 0,-7.5 z m 131.25,0 0,-7.5 1.5625,0 1.5625,0 0,7.5 0,7.5 -1.5625,0 -1.5625,0 0,-7.5 z m 35,0 0,-7.5 1.5625,0 1.5625,0 0,7.5 0,7.5 -1.5625,0 -1.5625,0 0,-7.5 z m 26.25,0 0,-7.5 1.5625,0 1.5625,0 0,7.5 0,7.5 -1.5625,0 -1.5625,0 0,-7.5 z m 87.5,0 0,-7.5 1.5625,0 1.5625,0 0,7.5 0,7.5 -1.5625,0 -1.5625,0 0,-7.5 z m -318.125,6.02417 c 0,-0.54925 -0.50633,-0.75404 -1.42846,-0.57776 -1.27365,0.24347 -1.72412,-0.37887 -4.15666,-5.74252 -1.95887,-4.31923 -2.53725,-6.20652 -2.05105,-6.69272 1.33069,-1.3307 2.73924,0.18074 5.19616,5.57569 l 2.49366,5.47564 17.31692,-0.15741 c 9.52431,-0.0866 17.70948,0.096 18.18925,0.40567 0.47978,0.3097 0.69955,1.01335 0.48837,1.56366 -0.33964,0.88509 -2.44223,1.00058 -18.21607,1.00058 -14.62679,0 -17.83212,-0.15294 -17.83212,-0.85083 z m 43.86278,-0.55542 c 0.19457,-1.36997 0.41735,-1.41028 8.63722,-1.56257 8.63109,-0.15991 10.47286,0.21006 9.79819,1.96824 -0.3278,0.85422 -1.71878,1.00058 -9.50955,1.00058 -9.10607,0 -9.12515,-0.003 -8.92586,-1.40625 z m 52.38722,0.55542 c 0,-0.54925 -0.50633,-0.75404 -1.42846,-0.57776 -1.27365,0.24347 -1.72412,-0.37887 -4.15666,-5.74252 -1.95887,-4.31923 -2.53725,-6.20652 -2.05105,-6.69272 1.33072,-1.33072 2.73925,0.18077 5.1959,5.57569 l 2.49341,5.47564 12.94218,-0.16016 c 7.1182,-0.0881 13.33472,0.0945 13.81451,0.40567 0.47977,0.31121 0.69953,1.0161 0.48836,1.56641 -0.3356,0.87457 -2.0787,1.00058 -13.84108,1.00058 -10.93596,0 -13.45711,-0.1594 -13.45711,-0.85083 z m 52.61278,-0.55542 c 0.19457,-1.36997 0.41735,-1.41028 8.63722,-1.56257 8.63109,-0.15991 10.47286,0.21006 9.79819,1.96824 -0.3278,0.85422 -1.71878,1.00058 -9.50955,1.00058 -9.10607,0 -9.12515,-0.003 -8.92586,-1.40625 z m 61.25002,0 c 0.1946,-1.36997 0.4173,-1.41028 8.6372,-1.56257 8.6311,-0.15991 10.4729,0.21006 9.7982,1.96824 -0.3278,0.85422 -1.7188,1.00058 -9.5096,1.00058 -9.106,0 -9.1251,-0.003 -8.9258,-1.40625 z m 70,0 0.1997,-1.40625 17.1875,-0.15226 c 9.4531,-0.0837 17.58,0.0988 18.0598,0.40568 0.4798,0.30686 0.6996,1.00819 0.4884,1.5585 -0.3397,0.88517 -2.4459,1.00058 -18.2596,1.00058 l -17.8755,0 0.1997,-1.40625 z M 477.1875,95.5981 c 0,-1.79243 5.60505,-12.29839 6.56133,-12.29839 1.9166,0 1.66287,1.95872 -0.97193,7.50306 -2.23854,4.7105 -2.9082,5.62194 -4.13054,5.62194 -0.80237,0 -1.45886,-0.37198 -1.45886,-0.82661 z m 183.75,0 c 0,-1.79243 5.6051,-12.29839 6.5613,-12.29839 1.9166,0 1.6629,1.95872 -0.9719,7.50306 -2.2385,4.7105 -2.9082,5.62194 -4.1305,5.62194 -0.8024,0 -1.4589,-0.37198 -1.4589,-0.82661 z m -122.5,-2.8505 c 0,-1.32853 0.36954,-1.91177 1.40625,-2.21941 l 1.40625,-0.4173 -1.40625,-0.57295 c -0.93726,-0.38187 -1.40625,-1.10076 -1.40625,-2.15559 0,-1.99997 0.88282,-2.00567 5.34002,-0.0345 4.73497,2.09402 4.57584,3.59983 -0.60244,5.70073 -4.64709,1.8854 -4.73758,1.87966 -4.73758,-0.30098 z m 6.25,-2.26039 c 0.44847,-0.54037 0.50921,-0.9375 0.14339,-0.9375 -0.34906,0 -0.79654,0.42187 -0.99441,0.9375 -0.19786,0.51562 -0.26239,0.9375 -0.14339,0.9375 0.11899,0 0.56648,-0.42188 0.99441,-0.9375 z m -3.75,-17.1875 0,-7.5 1.5625,0 1.5625,0 0,7.5 0,7.5 -1.5625,0 -1.5625,0 0,-7.5 z m 26.25,0 0,-7.5 1.5625,0 1.5625,0 0,7.5 0,7.5 -1.5625,0 -1.5625,0 0,-7.5 z m 35,0 0,-7.5 1.5625,0 1.5625,0 0,7.5 0,7.5 -1.5625,0 -1.5625,0 0,-7.5 z m 26.25,0 0,-7.5 1.5625,0 1.5625,0 0,7.5 0,7.5 -1.5625,0 -1.5625,0 0,-7.5 z m 87.5,0 0,-7.5 1.5625,0 1.5625,0 0,7.5 0,7.5 -1.5625,0 -1.5625,0 0,-7.5 z m -213.01222,5.46875 c 0.19936,-1.40371 0.22377,-1.40647 13.51757,-1.52681 l 13.31785,-0.12056 2.75511,-5.66069 c 2.67568,-5.49747 4.2215,-6.9361 5.07185,-4.72013 0.57468,1.49761 -4.76846,12.18444 -6.09192,12.18444 -0.61021,0 -1.28329,0.28125 -1.49574,0.625 -0.23814,0.38532 -5.54181,0.625 -13.83036,0.625 l -13.44408,0 0.19972,-1.40625 z m 166.13722,0.55542 c 0,-0.54925 -0.5063,-0.75404 -1.4285,-0.57776 -1.2736,0.24347 -1.7241,-0.37886 -4.1566,-5.74251 -1.9589,-4.31924 -2.5373,-6.20653 -2.0511,-6.69273 1.3308,-1.33072 2.7393,0.18077 5.1959,5.57569 l 2.4934,5.47564 12.9422,-0.16016 c 7.1182,-0.0881 13.3347,0.0945 13.8145,0.40567 0.4798,0.31121 0.6996,1.01609 0.4884,1.56641 -0.3356,0.87457 -2.0787,1.00058 -13.8411,1.00058 -10.9359,0 -13.4571,-0.1594 -13.4571,-0.85083 z M 389.6875,78.0981 c 0,-1.79243 5.60505,-12.29839 6.56133,-12.29839 1.9166,0 1.66287,1.95873 -0.97193,7.50306 -2.23855,4.7105 -2.9082,5.62194 -4.13054,5.62194 -0.80237,0 -1.45886,-0.37198 -1.45886,-0.82661 z m 90.01846,-5.14173 c -1.94349,-4.28532 -2.51583,-6.15929 -2.02963,-6.64549 1.32051,-1.32052 2.71422,0.15911 5.15996,5.47807 2.87815,6.25936 3.0042,7.13576 1.02633,7.13576 -1.22633,0 -1.86725,-0.92027 -4.15666,-5.96834 z m 105.00004,0 c -1.9435,-4.28532 -2.5159,-6.15929 -2.0297,-6.64549 1.3205,-1.32052 2.7143,0.15911 5.16,5.47807 2.8781,6.25936 3.0042,7.13576 1.0263,7.13576 -1.2263,0 -1.8672,-0.92027 -4.1566,-5.96834 z m 6.2315,5.14173 c 0,-1.79243 5.605,-12.29839 6.5613,-12.29839 1.9166,0 1.6629,1.95873 -0.9719,7.50306 -2.2385,4.7105 -2.9082,5.62194 -4.1305,5.62194 -0.8024,0 -1.4589,-0.37198 -1.4589,-0.82661 z m 55.0185,-5.14173 c -1.9435,-4.28532 -2.5159,-6.15929 -2.0297,-6.64549 1.3205,-1.32052 2.7143,0.15911 5.16,5.47807 2.8781,6.25936 3.0042,7.13576 1.0263,7.13576 -1.2263,0 -1.8672,-0.92027 -4.1566,-5.96834 z m 6.2315,5.14173 c 0,-1.79243 5.6051,-12.29839 6.5613,-12.29839 1.9166,0 1.6629,1.95873 -0.9719,7.50306 -2.2385,4.7105 -2.9082,5.62194 -4.1305,5.62194 -0.8024,0 -1.4589,-0.37198 -1.4589,-0.82661 z m -216.25,-2.31917 c 0,-1.04267 -0.72229,-3.32115 -1.60509,-5.06327 -0.8828,-1.74212 -1.45413,-3.56089 -1.26961,-4.04172 0.50225,-1.30885 2.67826,-1.05349 3.7221,0.43681 l 0.91829,1.31103 0.70165,-1.31103 c 0.88543,-1.65445 3.78388,-1.82106 3.78004,-0.21729 -0.001,0.60156 -0.70456,2.47735 -1.5625,4.16842 -0.85793,1.69107 -1.55988,3.87076 -1.55988,4.84375 0,1.47035 -0.26385,1.76908 -1.5625,1.76908 -1.32325,0 -1.5625,-0.29028 -1.5625,-1.89578 z m 2.35371,-4.04172 c 0.55299,-1.06669 0.44737,-1.25 -0.7203,-1.25 -1.18541,0 -1.28248,0.1819 -0.72617,1.36072 0.35318,0.74839 0.67732,1.31089 0.7203,1.25 0.043,-0.0609 0.36975,-0.67322 0.72617,-1.36072 z m 251.39629,-15.9375 0,-7.5 1.5625,0 1.5625,0 0,7.5 0,7.5 -1.5625,0 -1.5625,0 0,-7.5 z m 26.25,0 0,-7.5 1.5625,0 1.5625,0 0,7.5 0,7.5 -1.5625,0 -1.5625,0 0,-7.5 z m -239.375,6.02417 c 0,-0.54925 -0.50633,-0.75404 -1.42846,-0.57776 -1.27365,0.24347 -1.72412,-0.37886 -4.15666,-5.74251 -1.95887,-4.31924 -2.53725,-6.20653 -2.05105,-6.69273 1.33068,-1.33068 2.73923,0.18072 5.19629,5.57569 l 2.49381,5.47564 4.68612,-0.0979 4.68613,-0.0979 2.76612,-5.68332 c 2.68619,-5.51908 4.23161,-6.96109 5.08286,-4.74276 0.57468,1.49761 -4.76846,12.18444 -6.09192,12.18444 -0.61021,0 -1.28329,0.28125 -1.49574,0.625 -0.21245,0.34375 -2.47905,0.625 -5.03689,0.625 -3.50666,0 -4.65061,-0.20929 -4.65061,-0.85083 z m 26.36278,-0.55542 c 0.19457,-1.36998 0.41735,-1.41028 8.63722,-1.56257 8.63109,-0.15991 10.47286,0.21006 9.79819,1.96824 -0.3278,0.85422 -1.71878,1.00058 -9.50955,1.00058 -9.10607,0 -9.12515,-0.003 -8.92586,-1.40625 z m 34.88722,0.55542 c 0,-0.54925 -0.50633,-0.75404 -1.42846,-0.57776 -1.27365,0.24347 -1.72412,-0.37886 -4.15666,-5.74251 -1.95887,-4.31924 -2.53725,-6.20653 -2.05105,-6.69273 1.33082,-1.33082 2.73929,0.1809 5.19488,5.57569 l 2.49238,5.47564 4.1932,-0.17286 c 4.51892,-0.18628 6.16173,0.40081 5.5539,1.98478 -0.51845,1.35107 -9.79819,1.4929 -9.79819,0.14975 z m 26.36278,-0.55542 c 0.19457,-1.36998 0.41735,-1.41028 8.63722,-1.56257 8.6311,-0.15991 10.4729,0.21006 9.7982,1.96824 -0.3278,0.85422 -1.7188,1.00058 -9.50956,1.00058 -9.10607,0 -9.12515,-0.003 -8.92586,-1.40625 z m 34.88722,0.55542 c 0,-0.54925 -0.5063,-0.75404 -1.4285,-0.57776 -1.2736,0.24347 -1.7241,-0.37886 -4.1566,-5.74251 -1.9589,-4.31924 -2.5373,-6.20653 -2.0511,-6.69273 1.3308,-1.33082 2.7393,0.1809 5.1949,5.57569 l 2.4924,5.47564 4.1932,-0.17286 c 4.5189,-0.18628 6.1617,0.40081 5.5539,1.98478 -0.5185,1.35107 -9.7982,1.4929 -9.7982,0.14975 z m 26.3628,-0.55542 c 0.1946,-1.36998 0.4173,-1.41028 8.6372,-1.56257 8.6311,-0.15991 10.4729,0.21006 9.7982,1.96824 -0.3278,0.85422 -1.7188,1.00058 -9.5096,1.00058 -9.106,0 -9.1251,-0.003 -8.9258,-1.40625 z M 398.4375,60.5981 c 0,-1.79243 5.60505,-12.29839 6.56133,-12.29839 1.9166,0 1.66287,1.95873 -0.97193,7.50306 -2.23855,4.7105 -2.9082,5.62194 -4.13054,5.62194 -0.80237,0 -1.45886,-0.37198 -1.45886,-0.82661 z m 28.76846,-5.14173 c -1.94349,-4.28532 -2.51583,-6.15929 -2.02963,-6.64549 1.32052,-1.32052 2.71422,0.15911 5.15996,5.47807 2.87816,6.25936 3.00421,7.13576 1.02633,7.13576 -1.22633,0 -1.86725,-0.92027 -4.15666,-5.96834 z m 14.98154,5.14173 c 0,-1.79243 5.60505,-12.29839 6.56133,-12.29839 1.9166,0 1.66287,1.95873 -0.97193,7.50306 -2.23855,4.7105 -2.9082,5.62194 -4.13054,5.62194 -0.80237,0 -1.45886,-0.37198 -1.45886,-0.82661 z m 213.2813,-2.50574 c -2.8094,-1.15284 -3.2813,-1.58786 -3.2813,-3.02467 0,-1.46732 0.4444,-1.84445 3.5373,-3.00164 1.9455,-0.72791 3.9351,-1.17085 4.4212,-0.9843 1.3065,0.50137 0.6922,2.38723 -1.0626,3.26212 l -1.5306,0.76306 1.7357,0.6599 c 1.2986,0.4937 1.6854,1.01219 1.5361,2.05875 -0.2623,1.83851 -1.389,1.89462 -5.3558,0.26678 z m -0.5675,-3.19832 c 0.2318,-0.60413 0.047,-0.79042 -0.5545,-0.55951 -0.4962,0.19039 -0.7465,0.59794 -0.5563,0.90567 0.479,0.77506 0.7079,0.70372 1.1108,-0.34616 z M 494.17528,43.76846 494.375,42.36221 572.8125,42.21414 c 44.7789,-0.0845 78.8118,0.0896 79.3098,0.40567 0.4798,0.30456 0.6996,1.004 0.4884,1.55432 -0.3493,0.91015 -7.5353,1.00058 -79.50956,1.00058 l -79.12558,0 0.19972,-1.40625 z m 166.25002,0 c 0.1989,-1.4003 0.2539,-1.4069 13.0122,-1.56001 7.0469,-0.0846 13.205,0.098 13.6848,0.40567 0.4798,0.30769 0.6996,1.00969 0.4884,1.56001 -0.3357,0.87471 -2.0823,1.00058 -13.8846,1.00058 l -13.5005,0 0.1997,-1.40625 z m 35,0 c 0.1946,-1.36998 0.4173,-1.41028 8.6372,-1.56257 8.6311,-0.15991 10.4729,0.21006 9.7982,1.96824 -0.3278,0.85422 -1.7188,1.00058 -9.5096,1.00058 -9.106,0 -9.1251,-0.003 -8.9258,-1.40625 z M 407.1875,43.0981 c 0,-1.79243 5.60505,-12.29839 6.56133,-12.29839 1.9166,0 1.66287,1.95873 -0.97193,7.50306 -2.23855,4.7105 -2.9082,5.62194 -4.13054,5.62194 -0.80237,0 -1.45886,-0.37198 -1.45886,-0.82661 z m 55.01846,-5.14173 c -1.94349,-4.28532 -2.51583,-6.15929 -2.02963,-6.64549 1.32051,-1.32052 2.71422,0.15911 5.15996,5.47807 2.87815,6.25936 3.0042,7.13576 1.02633,7.13576 -1.22633,0 -1.86725,-0.92027 -4.15666,-5.96834 z m 227.48154,2.92174 c 0,-2.17376 0.7358,-2.82583 2.5419,-2.25259 2.045,0.64905 1.4114,3.67734 -0.8231,3.93445 -1.5379,0.17695 -1.7188,-8e-5 -1.7188,-1.68186 z m 26.25,0 c 0,-2.17376 0.7358,-2.82583 2.5419,-2.25259 2.045,0.64905 1.4114,3.67734 -0.8231,3.93445 -1.5379,0.17695 -1.7188,-8e-5 -1.7188,-1.68186 z M 415.42528,26.26846 415.625,24.86221 437.1875,24.71094 c 11.85937,-0.0832 21.95504,0.0994 22.43483,0.40567 0.47977,0.30632 0.69953,1.0072 0.48836,1.55752 -0.34211,0.89151 -2.80938,1.00058 -22.63454,1.00058 l -22.25059,0 0.19972,-1.40625 z"
         id="path5035"
         inkscape:connector-curvature="0" />
    </g>
    <g
       id="g5047"
       transform="matrix(1.0057522,0,0,1.0057522,-0.08241956,535.29321)"
       style="fill:none;stroke:#000000;stroke-opacity:1;stroke-width:0.03523042;stroke-miterlimit:4;stroke-dasharray:none">
      <path
         style="fill:none;stroke:#000000;stroke-opacity:1;stroke-width:0.03523042;stroke-miterlimit:4;stroke-dasharray:none"
         d="m 437.59707,199.31289 c -1.64111,-3.76008 -2.12441,-5.40436 -1.71385,-5.83097 1.11506,-1.15866 2.29193,0.1396 4.35715,4.80664 2.43035,5.49218 2.5368,6.26115 0.86664,6.26115 -1.03552,0 -1.57673,-0.80748 -3.50994,-5.23682 z m 5.26201,4.51153 c 0,-1.57274 4.73299,-10.79102 5.54048,-10.79102 1.61842,0 1.40416,1.71865 -0.82071,6.58343 -1.89025,4.13315 -2.45572,4.93288 -3.48789,4.93288 -0.67753,0 -1.23188,-0.32639 -1.23188,-0.72529 z m 53.84707,-4.51153 c -1.64111,-3.76008 -2.12441,-5.40436 -1.71385,-5.83097 1.11506,-1.15866 2.29193,0.13961 4.35715,4.80664 2.43035,5.49218 2.5368,6.26115 0.86665,6.26115 -1.03553,0 -1.57674,-0.80748 -3.50995,-5.23682 z m 5.26201,4.51153 c 0,-1.57274 4.73299,-10.79102 5.54049,-10.79102 1.6184,0 1.40415,1.71865 -0.82071,6.58343 -1.89026,4.13315 -2.45573,4.93288 -3.4879,4.93288 -0.67753,0 -1.23188,-0.32639 -1.23188,-0.72529 z m 53.84707,-4.51153 c -1.64111,-3.76008 -2.12441,-5.40436 -1.71385,-5.83097 1.11505,-1.15866 2.29193,0.13961 4.35715,4.80664 2.43035,5.49218 2.53679,6.26115 0.86665,6.26115 -1.03553,0 -1.57674,-0.80748 -3.50995,-5.23682 z m 5.26201,4.51153 c 0,-1.57274 4.73299,-10.79102 5.54049,-10.79102 1.6184,0 1.40415,1.71865 -0.82071,6.58343 -1.89026,4.13315 -2.45574,4.93288 -3.4879,4.93288 -0.67753,0 -1.23188,-0.32639 -1.23188,-0.72529 z m 46.45847,-4.51153 c -1.64112,-3.76008 -2.12447,-5.40436 -1.71391,-5.83097 1.11505,-1.15866 2.29199,0.13961 4.35719,4.80664 2.4303,5.49218 2.53679,6.26115 0.86661,6.26115 -1.0355,0 -1.57669,-0.80748 -3.50989,-5.23682 z m 5.26197,4.51153 c 0,-1.57274 4.73304,-10.79102 5.54046,-10.79102 1.61842,0 1.40418,1.71865 -0.82068,6.58343 -1.89023,4.13315 -2.45573,4.93288 -3.48786,4.93288 -0.67756,0 -1.23192,-0.32639 -1.23192,-0.72529 z m 46.45847,-4.51153 c -1.64112,-3.76008 -2.12446,-5.40436 -1.7139,-5.83097 1.11504,-1.15866 2.29199,0.13961 4.35718,4.80664 2.43031,5.49218 2.53679,6.26115 0.86662,6.26115 -1.03551,0 -1.5767,-0.80748 -3.5099,-5.23682 z m 5.26198,4.51153 c 0,-1.57274 4.73303,-10.79102 5.54047,-10.79102 1.6184,0 1.40417,1.71865 -0.8207,6.58343 -1.89022,4.13315 -2.45572,4.93288 -3.48785,4.93288 -0.67756,0 -1.23192,-0.32639 -1.23192,-0.72529 z m 46.45847,-4.51153 c -1.64112,-3.76008 -2.12446,-5.40436 -1.71391,-5.83097 1.11505,-1.15866 2.292,0.13961 4.35718,4.80664 2.43032,5.49218 2.53679,6.26115 0.86663,6.26115 -1.03551,0 -1.57669,-0.80748 -3.5099,-5.23682 z m 5.26197,4.51153 c 0,-1.57274 4.73303,-10.79102 5.54047,-10.79102 1.6184,0 1.40417,1.71865 -0.82069,6.58343 -1.89022,4.13315 -2.45573,4.93288 -3.48786,4.93288 -0.67756,0 -1.23192,-0.32639 -1.23192,-0.72529 z m -293.43435,-19.56535 0,-6.58075 1.3194,0 1.31939,0 0,6.58075 0,6.58075 -1.31939,0 -1.3194,0 0,-6.58075 z m 162.54996,0 0,-6.58075 1.3194,0 1.3194,0 0,6.58075 0,6.58075 -1.3194,0 -1.3194,0 0,-6.58075 z m 14.77727,0 0,-6.58075 1.3194,0 1.3194,0 0,6.58075 0,6.58075 -1.3194,0 -1.3194,0 0,-6.58075 z m -202.13194,5.28581 c 0,-0.48193 -0.42755,-0.66162 -1.20622,-0.50695 -1.07548,0.21363 -1.45587,-0.33243 -3.50994,-5.03868 -1.6541,-3.78983 -2.14249,-5.4458 -1.73194,-5.87241 1.12369,-1.16762 2.31307,0.15861 4.38749,4.89229 l 2.10548,4.80451 10.92858,-0.14053 c 6.01072,-0.0773 11.26005,0.0829 11.66517,0.35595 0.40514,0.27307 0.59072,0.89156 0.41239,1.37442 -0.28338,0.76738 -1.75528,0.87794 -11.68761,0.87794 -9.23451,0 -11.3634,-0.13986 -11.3634,-0.74654 z m 29.64977,-0.48735 c 0.15275,-1.11758 0.492,-1.24722 3.59909,-1.3753 3.72515,-0.15357 5.08554,0.36072 4.57943,1.73125 -0.25794,0.69845 -1.14441,0.87794 -4.33569,0.87794 -3.85817,0 -4.00503,-0.0472 -3.84283,-1.23389 z m 36.94318,0 0.16864,-1.23389 14.51339,-0.1336 c 7.98236,-0.0734 14.84486,0.0867 15.25,0.35596 0.40512,0.26925 0.5907,0.88462 0.41239,1.36748 -0.28683,0.77668 -2.06532,0.87794 -15.41866,0.87794 l -15.09441,0 0.16865,-1.23389 z m 51.72044,0 c 0.16521,-1.20874 0.32241,-1.23581 7.71473,-1.32816 l 7.54609,-0.0943 2.33186,-4.97839 c 2.26453,-4.83466 3.56965,-6.09868 4.28814,-4.15311 0.48526,1.31405 -4.02656,10.69103 -5.14411,10.69103 -0.51527,0 -1.08364,0.24678 -1.26303,0.5484 -0.19321,0.32483 -3.44816,0.54839 -7.98426,0.54839 -7.63983,0 -7.65766,-0.003 -7.48942,-1.23389 z m 29.45931,0.48735 c 0,-0.48193 -0.42756,-0.66162 -1.20622,-0.50695 -1.07549,0.21363 -1.45587,-0.33243 -3.50994,-5.03868 -1.6541,-3.78983 -2.14249,-5.4458 -1.73194,-5.87241 1.12377,-1.16771 2.3131,0.15874 4.38664,4.89229 l 2.1046,4.80451 3.5408,-0.15167 c 3.81585,-0.16345 5.20306,0.35168 4.6898,1.74151 -0.43779,1.18547 -8.27374,1.30992 -8.27374,0.1314 z m 22.16591,0 c 0,-0.48193 -0.42756,-0.66162 -1.20622,-0.50695 -1.07549,0.21363 -1.45588,-0.33243 -3.50995,-5.03868 -1.65409,-3.78983 -2.14249,-5.4458 -1.73193,-5.87241 1.12372,-1.16766 2.31309,0.15867 4.38707,4.89229 l 2.10505,4.80451 7.23467,-0.14452 c 7.37892,-0.14741 8.95798,0.17925 8.38369,1.73436 -0.27672,0.74926 -1.44834,0.87794 -7.99332,0.87794 -6.1179,0 -7.66906,-0.15099 -7.66906,-0.74654 z m 22.26115,-0.48735 c 0.15275,-1.11758 0.49196,-1.24722 3.59906,-1.3753 3.72514,-0.15357 5.08558,0.36072 4.57944,1.73125 -0.25797,0.69845 -1.14443,0.87794 -4.33574,0.87794 -3.85813,0 -4.00497,-0.0472 -3.84276,-1.23389 z m 36.94318,0 0.16863,-1.23389 14.51339,-0.1336 c 7.98234,-0.0734 14.84481,0.0867 15.24997,0.35596 0.40515,0.26925 0.59076,0.88462 0.41241,1.36748 -0.28685,0.77668 -2.06536,0.87794 -15.41869,0.87794 l -15.09434,0 0.16863,-1.23389 z m 51.72044,0 0.16863,-1.23389 14.51339,-0.1336 c 7.98234,-0.0734 14.84483,0.0867 15.24997,0.35596 0.40515,0.26925 0.59076,0.88462 0.41241,1.36748 -0.28684,0.77668 -2.06535,0.87794 -15.41868,0.87794 l -15.09435,0 0.16863,-1.23389 z m -218.87855,-1.21627 c -0.42059,-1.04598 -0.76471,-2.90474 -0.76471,-4.13059 0,-1.22584 0.34412,-3.0846 0.76471,-4.13058 0.60081,-1.49416 1.06552,-1.90177 2.16824,-1.90177 1.28639,0 1.36668,0.12589 0.96182,1.50809 -0.53251,1.81802 -0.50408,6.96127 0.0501,9.04853 0.36429,1.37226 0.27355,1.50809 -1.0075,1.50809 -1.10765,0 -1.57092,-0.40553 -2.17256,-1.90177 z m 162.54996,0 c -0.4206,-1.04598 -0.7647,-2.90474 -0.7647,-4.13059 0,-1.22584 0.3441,-3.0846 0.7647,-4.13058 0.6008,-1.49416 1.06557,-1.90177 2.16829,-1.90177 1.28638,0 1.3666,0.12589 0.96179,1.50809 -0.53248,1.81802 -0.50411,6.96127 0.0498,9.04853 0.36428,1.37226 0.27351,1.50809 -1.00756,1.50809 -1.10762,0 -1.57087,-0.40553 -2.17251,-1.90177 z m -172.28659,0.62808 c 0,-1.57274 4.73299,-10.79102 5.54049,-10.79102 1.61841,0 1.40416,1.71865 -0.82071,6.58344 -1.89026,4.13314 -2.45573,4.93287 -3.48789,4.93287 -0.67753,0 -1.23189,-0.32639 -1.23189,-0.72529 z m 59.10908,0 c 0,-1.57274 4.73299,-10.79102 5.54049,-10.79102 1.61841,0 1.40416,1.71865 -0.82071,6.58344 -1.89025,4.13314 -2.45573,4.93287 -3.48789,4.93287 -0.67753,0 -1.23189,-0.32639 -1.23189,-0.72529 z m 162.54998,0 c 0,-1.57274 4.73303,-10.79102 5.54045,-10.79102 1.61841,0 1.40418,1.71865 -0.82068,6.58344 -1.89023,4.13314 -2.45573,4.93287 -3.48786,4.93287 -0.67756,0 -1.23191,-0.32639 -1.23191,-0.72529 z m 51.72044,-2.50113 c 0,-1.16569 0.31201,-1.67745 1.1875,-1.94738 l 1.18741,-0.36615 -1.18741,-0.50273 c -0.79147,-0.33506 -1.1875,-0.96584 -1.1875,-1.89138 0,-1.75484 0.74545,-1.75985 4.50918,-0.0303 3.9983,1.83737 3.86395,3.15861 -0.50868,5.00201 -3.92409,1.65432 -4.0005,1.64928 -4.0005,-0.26409 z m 5.27759,-1.98334 c 0.37873,-0.47414 0.42998,-0.82259 0.1211,-0.82259 -0.29479,0 -0.67258,0.37016 -0.8397,0.82259 -0.1671,0.45242 -0.22157,0.8226 -0.12108,0.8226 0.1005,0 0.47835,-0.37018 0.83968,-0.8226 z m -165.71653,-15.08088 0,-6.58075 1.31941,0 1.3194,0 0,6.58075 0,6.58075 -1.3194,0 -1.31941,0 0,-6.58075 z m -83.81855,4.79846 c 0.16431,-1.20206 0.35243,-1.23742 7.29341,-1.37105 7.28823,-0.14031 8.84345,0.18432 8.27375,1.727 -0.27681,0.74952 -1.45137,0.87794 -8.03002,0.87794 -7.6893,0 -7.70541,-0.003 -7.53714,-1.23389 z m 29.45932,0.48735 c 0,-0.48193 -0.42756,-0.66162 -1.20622,-0.50695 -1.07549,0.21363 -1.45588,-0.33242 -3.50995,-5.03867 -1.65409,-3.78984 -2.14249,-5.44581 -1.73193,-5.87242 1.12376,-1.1677 2.3131,0.15873 4.38663,4.8923 l 2.1046,4.8045 3.54081,-0.15167 c 3.81584,-0.16345 5.20306,0.35168 4.68979,1.74151 -0.43778,1.18548 -8.27373,1.30992 -8.27373,0.1314 z m 133.09067,-0.48735 c 0.16432,-1.20206 0.35238,-1.23742 7.29339,-1.37105 7.28823,-0.14031 8.84348,0.18432 8.27375,1.727 -0.2768,0.74952 -1.45138,0.87794 -8.03006,0.87794 -7.68924,0 -7.70537,-0.003 -7.53708,-1.23389 z m 29.45929,0.48735 c 0,-0.48193 -0.42752,-0.66162 -1.20624,-0.50695 -1.07545,0.21363 -1.45586,-0.33242 -3.50991,-5.03867 -1.65412,-3.78984 -2.14253,-5.44581 -1.73197,-5.87242 1.12383,-1.1677 2.3131,0.15873 4.38665,4.8923 l 2.10463,4.8045 3.5408,-0.15167 c 3.81583,-0.16345 5.20303,0.35168 4.6898,1.74151 -0.43783,1.18548 -8.27376,1.30992 -8.27376,0.1314 z m 14.77727,0 c 0,-0.48193 -0.42752,-0.66162 -1.20624,-0.50695 -1.07545,0.21363 -1.45586,-0.33242 -3.5099,-5.03867 -1.65413,-3.78984 -2.14254,-5.44581 -1.73199,-5.87242 1.12375,-1.16762 2.31311,0.15861 4.3875,4.8923 l 2.10547,4.8045 10.9286,-0.14053 c 6.01072,-0.0773 11.26003,0.0829 11.66517,0.35595 0.40515,0.27307 0.59076,0.89155 0.41241,1.37442 -0.28338,0.76738 -1.75528,0.87794 -11.68763,0.87794 -9.23445,0 -11.36339,-0.13986 -11.36339,-0.74654 z m -300.27964,-5.58707 c -1.64111,-3.76008 -2.12441,-5.40436 -1.71385,-5.83097 1.11506,-1.15867 2.29193,0.13961 4.35714,4.80664 2.43037,5.49217 2.5368,6.26115 0.86665,6.26115 -1.03552,0 -1.57673,-0.80747 -3.50994,-5.23682 z m 71.75972,4.51153 c 0,-1.57274 4.73299,-10.79102 5.54049,-10.79102 1.61841,0 1.40415,1.71866 -0.82072,6.58344 -1.89026,4.13315 -2.45572,4.93287 -3.48788,4.93287 -0.67754,0 -1.23189,-0.32638 -1.23189,-0.72529 z m 7.38864,0 c 0,-1.57274 4.73299,-10.79102 5.54048,-10.79102 1.61841,0 1.40415,1.71866 -0.82071,6.58344 -1.89026,4.13315 -2.45572,4.93287 -3.48789,4.93287 -0.67754,0 -1.23188,-0.32638 -1.23188,-0.72529 z m 157.28799,-4.51153 c -1.64113,-3.76008 -2.12447,-5.40436 -1.71392,-5.83097 1.11506,-1.15867 2.29201,0.13961 4.35719,4.80664 2.43031,5.49217 2.5368,6.26115 0.86663,6.26115 -1.03551,0 -1.5767,-0.80747 -3.5099,-5.23682 z m 5.26197,4.51153 c 0,-1.57274 4.73304,-10.79102 5.54047,-10.79102 1.61841,0 1.40418,1.71866 -0.82069,6.58344 -1.89023,4.13315 -2.45573,4.93287 -3.48785,4.93287 -0.67756,0 -1.23193,-0.32638 -1.23193,-0.72529 z m 90.79028,-4.51153 c -1.64112,-3.76008 -2.12447,-5.40436 -1.71391,-5.83097 1.11506,-1.15867 2.292,0.13961 4.35719,4.80664 2.4303,5.49217 2.53679,6.26115 0.86662,6.26115 -1.03551,0 -1.5767,-0.80747 -3.5099,-5.23682 z m -295.56101,2.47661 c 0,-0.91487 -0.60992,-2.91409 -1.35537,-4.44268 -0.74545,-1.52859 -1.22789,-3.12444 -1.07208,-3.54634 0.42411,-1.14843 2.26157,-0.92436 3.143,0.38327 l 0.77542,1.15034 0.59248,-1.15034 c 0.74767,-1.45167 3.19517,-1.59785 3.19193,-0.19065 -8.5e-4,0.52782 -0.59495,2.17371 -1.3194,3.65751 -0.72445,1.4838 -1.31719,3.39633 -1.31719,4.25006 0,1.29014 -0.22279,1.55225 -1.31939,1.55225 -1.11738,0 -1.3194,-0.2547 -1.3194,-1.66342 z m 1.9875,-3.54634 c 0.46696,-0.93595 0.37777,-1.09679 -0.60823,-1.09679 -1.00098,0 -1.08295,0.15961 -0.61319,1.19394 0.29823,0.65666 0.57194,1.15022 0.60823,1.09679 0.0364,-0.0534 0.31222,-0.5907 0.61319,-1.19394 z m 160.56246,3.54634 c 0,-0.91487 -0.60992,-2.91409 -1.35537,-4.44268 -0.74545,-1.52859 -1.22786,-3.12444 -1.07207,-3.54634 0.42407,-1.14843 2.2616,-0.92436 3.143,0.38327 l 0.77542,1.15034 0.59245,-1.15034 c 0.74772,-1.45167 3.19518,-1.59785 3.19197,-0.19065 0,0.52782 -0.59497,2.17371 -1.3194,3.65751 -0.72451,1.4838 -1.3172,3.39633 -1.3172,4.25006 0,1.29014 -0.22276,1.55225 -1.3194,1.55225 -1.11742,0 -1.3194,-0.2547 -1.3194,-1.66342 z m 1.9875,-3.54634 c 0.46696,-0.93595 0.37779,-1.09679 -0.60823,-1.09679 -1.00097,0 -1.08296,0.15961 -0.61322,1.19394 0.29825,0.65666 0.57201,1.15022 0.60824,1.09679 0.0363,-0.0534 0.31226,-0.5907 0.61321,-1.19394 z m 12.78977,3.54634 c 0,-0.91487 -0.60992,-2.91409 -1.35537,-4.44268 -0.74545,-1.52859 -1.22786,-3.12444 -1.07207,-3.54634 0.42415,-1.14843 2.2616,-0.92436 3.143,0.38327 l 0.77543,1.15034 0.59244,-1.15034 c 0.74773,-1.45167 3.19518,-1.59785 3.19197,-0.19065 0,0.52782 -0.59497,2.17371 -1.31939,3.65751 -0.72443,1.4838 -1.31721,3.39633 -1.31721,4.25006 0,1.29014 -0.22276,1.55225 -1.3194,1.55225 -1.11733,0 -1.3194,-0.2547 -1.3194,-1.66342 z m 1.9875,-3.54634 c 0.46697,-0.93595 0.37779,-1.09679 -0.60823,-1.09679 -1.00097,0 -1.08296,0.15961 -0.61322,1.19394 0.29826,0.65666 0.57202,1.15022 0.60824,1.09679 0.0364,-0.0534 0.31226,-0.5907 0.61321,-1.19394 z m -85.37352,3.08013 c 0,-1.16569 0.31205,-1.67744 1.18746,-1.94738 l 1.18746,-0.36616 -1.18746,-0.50272 c -0.79144,-0.33506 -1.18746,-0.96584 -1.18746,-1.89138 0,-1.75484 0.74547,-1.75984 4.5092,-0.0303 3.99828,1.83737 3.8639,3.15861 -0.50872,5.002 -3.92407,1.65431 -4.00048,1.64926 -4.00048,-0.2641 z m 5.2776,-1.98334 c 0.37869,-0.47413 0.42998,-0.82259 0.12107,-0.82259 -0.29474,0 -0.67261,0.37016 -0.83969,0.82259 -0.16707,0.45243 -0.22156,0.8226 -0.12108,0.8226 0.10051,0 0.47834,-0.37017 0.8397,-0.8226 z m 34.43632,2.28585 c -2.37224,-1.01154 -2.77075,-1.39324 -2.77075,-2.65395 0,-1.28747 0.37529,-1.61838 2.98696,-2.63373 1.64282,-0.63871 3.32282,-1.02735 3.73331,-0.86366 1.10327,0.43992 0.58455,2.09463 -0.89727,2.86229 l -1.29242,0.66953 1.46563,0.57902 c 1.09651,0.43319 1.42317,0.88813 1.29708,1.80642 -0.2215,1.61317 -1.17285,1.6624 -4.52254,0.23408 z m -0.47917,-2.80631 c 0.19576,-0.53009 0.0398,-0.69354 -0.46826,-0.49094 -0.41896,0.16706 -0.63033,0.52466 -0.46974,0.79467 0.40449,0.68006 0.5978,0.61747 0.938,-0.30373 z m -91.48296,-9.27461 c 0,-0.48193 -0.42755,-0.66162 -1.20621,-0.50695 -1.07548,0.21363 -1.45587,-0.33242 -3.50995,-5.03866 -1.6541,-3.78985 -2.14249,-5.44582 -1.73194,-5.87243 1.12373,-1.16766 2.31309,0.15867 4.38708,4.8923 l 2.10505,4.80451 7.23468,-0.14453 c 7.37895,-0.14741 8.95797,0.17925 8.38367,1.73436 -0.27669,0.74926 -1.44831,0.87795 -7.9933,0.87795 -6.11791,0 -7.66908,-0.151 -7.66908,-0.74655 z m 162.54997,0 c 0,-0.48193 -0.42752,-0.66162 -1.20624,-0.50695 -1.07545,0.21363 -1.45586,-0.33242 -3.5099,-5.03866 -1.65413,-3.78985 -2.14254,-5.44582 -1.73199,-5.87243 1.12375,-1.16766 2.31311,0.15867 4.38709,4.8923 l 2.10504,4.80451 7.23469,-0.14453 c 7.37902,-0.14741 8.95799,0.17925 8.3837,1.73436 -0.27672,0.74926 -1.44834,0.87795 -7.99332,0.87795 -6.11787,0 -7.66907,-0.151 -7.66907,-0.74655 z m 73.98161,-0.48734 c 0.16828,-1.23167 0.18897,-1.23409 11.41446,-1.33968 l 11.24576,-0.10578 2.32645,-4.96688 c 2.2594,-4.82366 3.5647,-6.08596 4.28279,-4.1416 0.4852,1.31406 -4.02659,10.69103 -5.14418,10.69103 -0.51526,0 -1.08355,0.24678 -1.263,0.5484 -0.20105,0.33809 -4.67957,0.5484 -11.6786,0.5484 l -11.35231,0 0.16863,-1.23389 z M 383.75,157.75918 c 0,-1.57274 4.73299,-10.79101 5.54048,-10.79101 1.61842,0 1.40417,1.71865 -0.82071,6.58343 -1.89026,4.13315 -2.45572,4.93287 -3.48789,4.93287 -0.67753,0 -1.23188,-0.32638 -1.23188,-0.72529 z m 112.95615,-4.51152 c -1.64111,-3.76009 -2.12441,-5.40437 -1.71385,-5.83098 1.11506,-1.15867 2.29193,0.13961 4.35715,4.80664 2.43035,5.49217 2.5368,6.26115 0.86665,6.26115 -1.03553,0 -1.57674,-0.80747 -3.50995,-5.23681 z m 14.77727,0 c -1.64111,-3.76009 -2.12441,-5.40437 -1.71385,-5.83098 1.11506,-1.15867 2.29193,0.13961 4.35715,4.80664 2.43035,5.49217 2.5368,6.26115 0.86665,6.26115 -1.03553,0 -1.57674,-0.80747 -3.50995,-5.23681 z m 22.16591,0 c -1.64112,-3.76009 -2.12441,-5.40437 -1.71386,-5.83098 1.11507,-1.15867 2.29193,0.13961 4.35715,4.80664 2.43036,5.49217 2.5368,6.26115 0.86665,6.26115 -1.03553,0 -1.57673,-0.80747 -3.50994,-5.23681 z m 5.26201,4.51152 c 0,-1.57274 4.73299,-10.79101 5.54048,-10.79101 1.6184,0 1.40415,1.71865 -0.82071,6.58343 -1.89026,4.13315 -2.45573,4.93287 -3.48789,4.93287 -0.67754,0 -1.23188,-0.32638 -1.23188,-0.72529 z m 22.1659,0 c 0,-1.57274 4.73299,-10.79101 5.54049,-10.79101 1.6184,0 1.40415,1.71865 -0.82071,6.58343 -1.89026,4.13315 -2.45574,4.93287 -3.4879,4.93287 -0.67753,0 -1.23188,-0.32638 -1.23188,-0.72529 z m 7.38863,0 c 0,-1.57274 4.73299,-10.79101 5.5405,-10.79101 1.61837,0 1.40415,1.71865 -0.82072,6.58343 -1.89025,4.13315 -2.45573,4.93287 -3.48789,4.93287 -0.67753,0 -1.23189,-0.32638 -1.23189,-0.72529 z m 46.45848,-4.51152 c -1.64112,-3.76009 -2.12447,-5.40437 -1.71391,-5.83098 1.11504,-1.15867 2.29199,0.13961 4.35718,4.80664 2.43031,5.49217 2.53679,6.26115 0.86662,6.26115 -1.0355,0 -1.57669,-0.80747 -3.50989,-5.23681 z m 44.3318,0 c -1.64112,-3.76009 -2.12446,-5.40437 -1.7139,-5.83098 1.11504,-1.15867 2.29199,0.13961 4.35718,4.80664 2.43031,5.49217 2.53679,6.26115 0.86662,6.26115 -1.03551,0 -1.5767,-0.80747 -3.5099,-5.23681 z m 20.03924,4.51152 c 0,-1.57274 4.73304,-10.79101 5.54047,-10.79101 1.61841,0 1.40418,1.71865 -0.82068,6.58343 -1.89023,4.13315 -2.45574,4.93287 -3.48786,4.93287 -0.67756,0 -1.23193,-0.32638 -1.23193,-0.72529 z m -255.41706,-2.816 c -0.42155,-0.5278 -1.16061,-0.69079 -2.17566,-0.47985 -1.35975,0.28259 -1.53726,0.16591 -1.53726,-1.01039 0,-0.73142 0.285,-1.62599 0.63332,-1.98793 0.8549,-0.88832 2.81833,-0.83189 3.72186,0.10696 0.43483,0.45183 1.31452,0.65018 2.14874,0.48446 1.07874,-0.21427 1.41248,-0.0626 1.41248,0.64201 0,2.63415 -2.72865,4.09129 -4.20348,2.24474 z m -1.07411,-16.74935 0,-6.58074 1.3194,0 1.31939,0 0,6.58074 0,6.58075 -1.31939,0 -1.3194,0 0,-6.58075 z m 34.30437,5.28581 c 0,-0.48193 -0.42755,-0.66162 -1.20622,-0.50695 -1.07548,0.21363 -1.45587,-0.33242 -3.50994,-5.03866 -1.65411,-3.78985 -2.1425,-5.44582 -1.73194,-5.87243 1.12364,-1.16758 2.31304,0.15857 4.38784,4.8923 l 2.1058,4.80451 18.31688,-0.13651 c 10.18192,-0.0759 18.64402,0.0822 19.05348,0.35594 0.40512,0.27086 0.5907,0.88754 0.41239,1.37041 -0.28887,0.78219 -2.36923,0.87794 -19.07626,0.87794 -15.46767,0 -18.75203,-0.13076 -18.75203,-0.74655 z m 51.81568,-0.48734 c 0.16794,-1.22867 0.21444,-1.23446 10.98772,-1.36881 5.95049,-0.0742 11.15054,0.086 11.55568,0.35595 0.40513,0.26998 0.59069,0.88594 0.41238,1.36881 -0.28344,0.76749 -1.75834,0.87794 -11.72433,0.87794 l -11.4001,0 0.16865,-1.23389 z m 36.94317,0 c 0.16794,-1.22867 0.21445,-1.23446 10.98772,-1.36881 5.95049,-0.0742 11.15054,0.086 11.55568,0.35595 0.40513,0.26998 0.5907,0.88594 0.41239,1.36881 -0.28345,0.76749 -1.75835,0.87794 -11.72434,0.87794 l -11.40009,0 0.16864,-1.23389 z m 29.55456,0 0.16863,-1.23389 18.2077,-0.13273 c 10.01427,-0.073 18.53915,0.0872 18.9443,0.35595 0.40515,0.26877 0.59075,0.88375 0.41241,1.36662 -0.28887,0.78224 -2.3723,0.87794 -19.11301,0.87794 l -18.78866,0 0.16863,-1.23389 z m 44.33181,0 0.16863,-1.23389 18.20771,-0.13273 c 10.01425,-0.073 18.53913,0.0872 18.94429,0.35595 0.40515,0.26877 0.59076,0.88375 0.41241,1.36662 -0.28887,0.78224 -2.3723,0.87794 -19.113,0.87794 l -18.78867,0 0.16863,-1.23389 z m 66.49772,0 0.16863,-1.23389 21.90202,-0.13213 c 12.14388,-0.0733 22.23017,0.0853 22.63861,0.35595 0.40515,0.26844 0.59075,0.88315 0.41241,1.36602 -0.29023,0.78597 -2.67925,0.87794 -22.80733,0.87794 l -22.48298,0 0.16864,-1.23389 z m -295.11289,-0.5882 c 0,-1.57274 4.73299,-10.79101 5.54048,-10.79101 1.61841,0 1.40416,1.71865 -0.82071,6.58343 -1.89026,4.13315 -2.45573,4.93288 -3.48789,4.93288 -0.67754,0 -1.23188,-0.32639 -1.23188,-0.7253 z m 6.95611,-14.76688 c 0.16793,-1.22867 0.21444,-1.23446 10.98771,-1.36881 5.95048,-0.0742 11.15055,0.086 11.55567,0.35595 0.40514,0.26998 0.59072,0.88594 0.41239,1.36881 -0.28343,0.7675 -1.75834,0.87794 -11.72432,0.87794 l -11.4001,0 0.16865,-1.23389 z m 29.55453,0 c 0.16793,-1.22867 0.21445,-1.23446 10.98772,-1.36881 5.95049,-0.0742 11.15054,0.086 11.55569,0.35595 0.40512,0.26998 0.59068,0.88594 0.41237,1.36881 -0.28344,0.7675 -1.75834,0.87794 -11.72432,0.87794 l -11.4001,0 0.16864,-1.23389 z"
         id="path5049"
         inkscape:connector-curvature="0" />
    </g>
    <path
       style="fill:none;fill-opacity:0.7132867;stroke:#000000;stroke-width:0.354;stroke-miterlimit:4;stroke-dasharray:none;stroke-opacity:1"
       d="M 2.8835507e-6,0.177 744.09449,0.177 l 0,524.40942 -744.0944871164492,0 z"
       id="rect4154" />
  </g>
</svg>
